<svg xmlns="http://www.w3.org/2000/svg" viewBox="0 0 198.25 200" width="198.25" height="200" role="img"><rect width="198.25" height="200" fill="#14110f"/><path d="M71.12 12L71.12 200" stroke="#4a3d31" stroke-width="1" fill="none"/><path d="M127.12 104L127.12 108" stroke="#2a221c" stroke-width="1" fill="none"/><text x="74.12" y="9" fill="#a8977f" font-size="9" font-family="ui-monospace, Menlo, monospace">A1</text><defs><filter id="fade-wk0psw8yr" filterUnits="userSpaceOnUse" x="104.47" y="66.31" width="81.17" height="14.28"><feGaussianBlur stdDeviation="1.26"/></filter><mask id="mask-wk0psw8yr" maskUnits="userSpaceOnUse" x="104.47" y="66.31" width="81.17" height="14.28"><path d="M116.58 73.45L117.32 73.45L116.58 73.45L115.19 73.45L113.96 73.45L113.71 73.45L115.08 73.45L116.83 73.45L118.58 73.45L120.33 73.45L122.08 73.45L123.83 73.45L125.58 73.45L127.33 73.45L129.29 73.45L133.2 73.45L138.8 73.45L145.33 73.45L152.31 73.45L158.71 73.45L163.61 73.45L166.25 73.45L168 73.45L169.75 73.45L171.5 73.45L173.25 73.45L175 73.45L176.75 73.45L178.5 73.45L178.23 73.45L175.54 73.45L172.85 73.45L172.58 73.45" fill="none" stroke="#fff" stroke-width="4.2" stroke-linecap="round" stroke-linejoin="round" filter="url(#fade-wk0psw8yr)"/></mask></defs><g mask="url(#mask-wk0psw8yr)" opacity="0.65"><path d="M114.48 73.45L115.22 73.45L114.48 73.45L113.09 73.45L111.86 73.45L111.61 73.45L112.98 73.45L114.73 73.45L116.48 73.45L118.23 73.45L119.98 73.45L121.73 73.45L123.48 73.45L125.23 73.45L127.19 73.45L131.1 73.45L136.7 73.45L143.23 73.45L150.21 73.45L156.61 73.45L161.51 73.45L164.15 73.45L165.9 73.45L167.65 73.45L169.4 73.45L171.15 73.45L172.9 73.45L174.65 73.45L176.4 73.45L176.13 73.45L173.44 73.45L170.75 73.45L170.48 73.45" fill="none" stroke="#a17521" stroke-width="4.2" stroke-linecap="round" stroke-linejoin="round"/></g><path d="M116.58 73.45L117.32 73.45L116.58 73.45L115.19 73.45L113.96 73.45L113.71 73.45L115.08 73.45L116.83 73.45L118.58 73.45L120.33 73.45L122.08 73.45L123.83 73.45L125.58 73.45L127.33 73.45L129.29 73.45L133.2 73.45L138.8 73.45L145.33 73.45L152.31 73.45L158.71 73.45L163.61 73.45L166.25 73.45L168 73.45L169.75 73.45L171.5 73.45L173.25 73.45L175 73.45L176.75 73.45L178.5 73.45L178.23 73.45L175.54 73.45L172.85 73.45L172.58 73.45" fill="none" stroke="#a17521" stroke-width="1.4" stroke-linecap="round" stroke-linejoin="round"/><defs><filter id="fade-wk119lm2i2" filterUnits="userSpaceOnUse" x="10.17" y="68.01" width="81.17" height="14.28"><feGaussianBlur stdDeviation="1.26"/></filter><mask id="mask-wk119lm2i2" maskUnits="userSpaceOnUse" x="10.17" y="68.01" width="81.17" height="14.28"><path d="M22.27 75.15L23.01 75.15L22.28 75.15L20.88 75.15L19.65 75.15L19.41 75.15L20.77 75.15L22.52 75.15L24.27 75.15L26.02 75.15L27.77 75.15L29.52 75.15L31.27 75.15L33.02 75.15L34.99 75.15L38.89 75.15L44.5 75.15L51.03 75.15L58.01 75.15L64.41 75.15L69.31 75.15L71.95 75.15L73.7 75.15L75.45 75.15L77.2 75.15L78.95 75.15L80.7 75.15L82.45 75.15L84.2 75.15L83.93 75.15L81.24 75.15L78.54 75.15L78.27 75.15" fill="none" stroke="#fff" stroke-width="4.2" stroke-linecap="round" stroke-linejoin="round" filter="url(#fade-wk119lm2i2)"/></mask></defs><g mask="url(#mask-wk119lm2i2)" opacity="0.65"><path d="M20.17 75.15L20.91 75.15L20.18 75.15L18.78 75.15L17.55 75.15L17.31 75.15L18.67 75.15L20.42 75.15L22.17 75.15L23.92 75.15L25.67 75.15L27.42 75.15L29.17 75.15L30.92 75.15L32.89 75.15L36.79 75.15L42.4 75.15L48.93 75.15L55.91 75.15L62.31 75.15L67.21 75.15L69.85 75.15L71.6 75.15L73.35 75.15L75.1 75.15L76.85 75.15L78.6 75.15L80.35 75.15L82.1 75.15L81.83 75.15L79.14 75.15L76.44 75.15L76.17 75.15" fill="none" stroke="#902722" stroke-width="4.2" stroke-linecap="round" stroke-linejoin="round"/></g><path d="M22.27 75.15L23.01 75.15L22.28 75.15L20.88 75.15L19.65 75.15L19.41 75.15L20.77 75.15L22.52 75.15L24.27 75.15L26.02 75.15L27.77 75.15L29.52 75.15L31.27 75.15L33.02 75.15L34.99 75.15L38.89 75.15L44.5 75.15L51.03 75.15L58.01 75.15L64.41 75.15L69.31 75.15L71.95 75.15L73.7 75.15L75.45 75.15L77.2 75.15L78.95 75.15L80.7 75.15L82.45 75.15L84.2 75.15L83.93 75.15L81.24 75.15L78.54 75.15L78.27 75.15" fill="none" stroke="#902722" stroke-width="1.4" stroke-linecap="round" stroke-linejoin="round"/><defs><filter id="fade-wk21lxhu4w" filterUnits="userSpaceOnUse" x="16.83" y="129.71" width="72.38" height="14.28"><feGaussianBlur stdDeviation="1.26"/></filter><mask id="mask-wk21lxhu4w" maskUnits="userSpaceOnUse" x="16.83" y="129.71" width="72.38" height="14.28"><path d="M23.97 136.85L26.73 136.85L30.97 136.85L35.86 136.85L40.59 136.85L44.34 136.85L46.47 136.85L48.22 136.85L49.97 136.85L51.72 136.85L53.47 136.85L55.22 136.85L56.97 136.85L58.72 136.85L60.26 136.85L59.85 136.85L57.75 136.85L54.72 136.85L51.23 136.85L48.34 136.85L46.93 136.85L47.8 136.85L49.55 136.85L51.3 136.85L53.05 136.85L54.8 136.85L56.55 136.85L58.3 136.85L60.05 136.85L63.82 136.85L70.01 136.85L76.2 136.85L79.97 136.85" fill="none" stroke="#fff" stroke-width="4.2" stroke-linecap="round" stroke-linejoin="round" filter="url(#fade-wk21lxhu4w)"/></mask></defs><g mask="url(#mask-wk21lxhu4w)" opacity="0.65"><path d="M26.07 136.85L28.83 136.85L33.07 136.85L37.96 136.85L42.69 136.85L46.44 136.85L48.57 136.85L50.32 136.85L52.07 136.85L53.82 136.85L55.57 136.85L57.32 136.85L59.07 136.85L60.82 136.85L62.36 136.85L61.95 136.85L59.85 136.85L56.82 136.85L53.33 136.85L50.44 136.85L49.03 136.85L49.9 136.85L51.65 136.85L53.4 136.85L55.15 136.85L56.9 136.85L58.65 136.85L60.4 136.85L62.15 136.85L65.92 136.85L72.11 136.85L78.3 136.85L82.07 136.85" fill="none" stroke="#ffca39" stroke-width="4.2" stroke-linecap="round" stroke-linejoin="round"/></g><path d="M23.97 136.85L26.73 136.85L30.97 136.85L35.86 136.85L40.59 136.85L44.34 136.85L46.47 136.85L48.22 136.85L49.97 136.85L51.72 136.85L53.47 136.85L55.22 136.85L56.97 136.85L58.72 136.85L60.26 136.85L59.85 136.85L57.75 136.85L54.72 136.85L51.23 136.85L48.34 136.85L46.93 136.85L47.8 136.85L49.55 136.85L51.3 136.85L53.05 136.85L54.8 136.85L56.55 136.85L58.3 136.85L60.05 136.85L63.82 136.85L70.01 136.85L76.2 136.85L79.97 136.85" fill="none" stroke="#ffca39" stroke-width="1.4" stroke-linecap="round" stroke-linejoin="round"/><defs><filter id="fade-wk316p49ij" filterUnits="userSpaceOnUse" x="114.53" y="131.41" width="72.38" height="14.28"><feGaussianBlur stdDeviation="1.26"/></filter><mask id="mask-wk316p49ij" maskUnits="userSpaceOnUse" x="114.53" y="131.41" width="72.38" height="14.28"><path d="M121.67 138.55L124.43 138.55L128.67 138.55L133.56 138.55L138.29 138.55L142.03 138.55L144.17 138.55L145.92 138.55L147.67 138.55L149.42 138.55L151.17 138.55L152.92 138.55L154.67 138.55L156.42 138.55L157.95 138.55L157.55 138.55L155.45 138.55L152.42 138.55L148.93 138.55L146.03 138.55L144.63 138.55L145.5 138.55L147.25 138.55L149 138.55L150.75 138.55L152.5 138.55L154.25 138.55L156 138.55L157.75 138.55L161.51 138.55L167.71 138.55L173.9 138.55L177.67 138.55" fill="none" stroke="#fff" stroke-width="4.2" stroke-linecap="round" stroke-linejoin="round" filter="url(#fade-wk316p49ij)"/></mask></defs><g mask="url(#mask-wk316p49ij)" opacity="0.65"><path d="M123.77 138.55L126.53 138.55L130.77 138.55L135.66 138.55L140.39 138.55L144.13 138.55L146.27 138.55L148.02 138.55L149.77 138.55L151.52 138.55L153.27 138.55L155.02 138.55L156.77 138.55L158.52 138.55L160.05 138.55L159.65 138.55L157.55 138.55L154.52 138.55L151.03 138.55L148.13 138.55L146.73 138.55L147.6 138.55L149.35 138.55L151.1 138.55L152.85 138.55L154.6 138.55L156.35 138.55L158.1 138.55L159.85 138.55L163.61 138.55L169.81 138.55L176 138.55L179.77 138.55" fill="none" stroke="#f8433a" stroke-width="4.2" stroke-linecap="round" stroke-linejoin="round"/></g><path d="M121.67 138.55L124.43 138.55L128.67 138.55L133.56 138.55L138.29 138.55L142.03 138.55L144.17 138.55L145.92 138.55L147.67 138.55L149.42 138.55L151.17 138.55L152.92 138.55L154.67 138.55L156.42 138.55L157.95 138.55L157.55 138.55L155.45 138.55L152.42 138.55L148.93 138.55L146.03 138.55L144.63 138.55L145.5 138.55L147.25 138.55L149 138.55L150.75 138.55L152.5 138.55L154.25 138.55L156 138.55L157.75 138.55L161.51 138.55L167.71 138.55L173.9 138.55L177.67 138.55" fill="none" stroke="#f8433a" stroke-width="1.4" stroke-linecap="round" stroke-linejoin="round"/></svg>