<svg xmlns="http://www.w3.org/2000/svg" viewBox="0 0 108 220" width="108" height="220" role="img"><rect width="108" height="220" fill="#14110f"/><path d="M40 12L40 220" stroke="#4a3d31" stroke-width="1" fill="none"/><path d="M96 114L96 118" stroke="#2a221c" stroke-width="1" fill="none"/><path d="M40 64L96 64" stroke="#2a221c" stroke-width="1" fill="none"/><text x="4" y="67" fill="#a8977f" font-size="9" font-family="ui-monospace, Menlo, monospace">across</text><path d="M40 168L96 168" stroke="#2a221c" stroke-width="1" fill="none"/><text x="4" y="171" fill="#a8977f" font-size="9" font-family="ui-monospace, Menlo, monospace">along</text><path d="M40 116L96 116" stroke="#4a3d31" stroke-width="1" fill="none"/><text x="43" y="9" fill="#a8977f" font-size="9" font-family="ui-monospace, Menlo, monospace">A1</text><path d="M40 26.11L41.75 25.75L43.5 25.62L45.25 26.7L47 27.63L48.75 25.75L50.5 21.11L52.25 17.01L54 15.4L55.75 15.4L57.5 15.4L59.25 15.4L61 15.4L62.75 15.4L64.5 15.4L66.25 15.4L68 15.4L69.75 15.4L71.5 15.4L73.25 15.4L75 15.4L76.75 15.4L78.5 15.4L80.25 15.4L82 15.4L83.75 15.4L85.5 15.4L87.25 15.4L89 15.4L90.75 15.4L92.5 15.4L94.25 15.4L96 15.4" fill="none" stroke="#a17521" stroke-width="1.4" stroke-linecap="round" stroke-linejoin="round"/><path d="M40 97.09L41.75 96.35L43.5 95.25L45.25 94.96L47 94.31L48.75 90.86L50.5 84.85L52.25 79.78L54 77.8L55.75 77.8L57.5 77.8L59.25 77.8L61 77.8L62.75 77.8L64.5 77.8L66.25 77.8L68 77.8L69.75 77.8L71.5 77.8L73.25 77.8L75 77.8L76.75 77.8L78.5 77.8L80.25 77.8L82 77.8L83.75 77.8L85.5 77.8L87.25 77.8L89 77.8L90.75 77.8L92.5 77.8L94.25 77.8L96 77.8" fill="none" stroke="#902722" stroke-width="1.4" stroke-linecap="round" stroke-linejoin="round"/><path d="M40 99.49L41.75 99.85L43.5 99.98L45.25 98.9L47 97.97L48.75 99.85L50.5 104.49L52.25 108.59L54 110.2L55.75 110.2L57.5 110.2L59.25 110.2L61 110.2L62.75 110.2L64.5 110.2L66.25 110.2L68 110.2L69.75 110.2L71.5 110.2L73.25 110.2L75 110.2L76.75 110.2L78.5 110.2L80.25 110.2L82 110.2L83.75 110.2L85.5 110.2L87.25 110.2L89 110.2L90.75 110.2L92.5 110.2L94.25 110.2L96 110.2" fill="none" stroke="#ffca39" stroke-width="1.4" stroke-linecap="round" stroke-linejoin="round"/><path d="M40 33.31L41.75 34.05L43.5 35.15L45.25 35.44L47 36.09L48.75 39.54L50.5 45.55L52.25 50.62L54 52.6L55.75 52.6L57.5 52.6L59.25 52.6L61 52.6L62.75 52.6L64.5 52.6L66.25 52.6L68 52.6L69.75 52.6L71.5 52.6L73.25 52.6L75 52.6L76.75 52.6L78.5 52.6L80.25 52.6L82 52.6L83.75 52.6L85.5 52.6L87.25 52.6L89 52.6L90.75 52.6L92.5 52.6L94.25 52.6L96 52.6" fill="none" stroke="#f8433a" stroke-width="1.4" stroke-linecap="round" stroke-linejoin="round"/><path d="M40 119.4L41.75 122.84L43.5 131.06L45.25 139.07L47 141.9L48.75 140.66L50.5 141.49L52.25 144.63L54 146.4L55.75 146.4L57.5 146.4L59.25 146.4L61 146.4L62.75 146.4L64.5 146.72L66.25 149.95L68 155.73L69.75 162.9L71.5 170.76L73.25 177.73L75 182.46L76.75 183.78L78.5 183.78L80.25 183.78L82 183.78L83.75 183.78L85.5 183.78L87.25 183.78L89 183.78L90.75 180.76L92.5 174.09L94.25 167.43L96 164.4" fill="none" stroke="#a17521" stroke-width="1.4" stroke-linecap="round" stroke-linejoin="round"/><path d="M40 121.8L41.75 125.24L43.5 133.46L45.25 141.47L47 144.3L48.75 143.06L50.5 143.89L52.25 147.03L54 148.8L55.75 148.8L57.5 148.8L59.25 148.8L61 148.8L62.75 148.8L64.5 149.12L66.25 152.35L68 158.13L69.75 165.3L71.5 173.16L73.25 180.13L75 184.86L76.75 186.18L78.5 186.18L80.25 186.18L82 186.18L83.75 186.18L85.5 186.18L87.25 186.18L89 186.18L90.75 183.16L92.5 176.49L94.25 169.83L96 166.8" fill="none" stroke="#902722" stroke-width="1.4" stroke-linecap="round" stroke-linejoin="round"/><path d="M40 214.2L41.75 210.76L43.5 202.54L45.25 194.53L47 191.7L48.75 192.94L50.5 192.11L52.25 188.97L54 187.2L55.75 187.2L57.5 187.2L59.25 187.2L61 187.2L62.75 187.2L64.5 186.88L66.25 183.65L68 177.87L69.75 170.7L71.5 162.84L73.25 155.87L75 151.14L76.75 149.82L78.5 149.82L80.25 149.82L82 149.82L83.75 149.82L85.5 149.82L87.25 149.82L89 149.82L90.75 152.84L92.5 159.51L94.25 166.17L96 169.2" fill="none" stroke="#ffca39" stroke-width="1.4" stroke-linecap="round" stroke-linejoin="round"/><path d="M40 216.6L41.75 213.16L43.5 204.94L45.25 196.93L47 194.1L48.75 195.34L50.5 194.51L52.25 191.37L54 189.6L55.75 189.6L57.5 189.6L59.25 189.6L61 189.6L62.75 189.6L64.5 189.28L66.25 186.05L68 180.27L69.75 173.1L71.5 165.24L73.25 158.27L75 153.54L76.75 152.22L78.5 152.22L80.25 152.22L82 152.22L83.75 152.22L85.5 152.22L87.25 152.22L89 152.22L90.75 155.24L92.5 161.91L94.25 168.57L96 171.6" fill="none" stroke="#f8433a" stroke-width="1.4" stroke-linecap="round" stroke-linejoin="round"/></svg>