<svg xmlns="http://www.w3.org/2000/svg" viewBox="0 0 228.4 200" width="228.4" height="200" role="img"><rect width="228.4" height="200" fill="#14110f"/><path d="M58.2 12L58.2 200" stroke="#4a3d31" stroke-width="1" fill="none"/><path d="M114.2 104L114.2 108" stroke="#2a221c" stroke-width="1" fill="none"/><path d="M170.2 104L170.2 108" stroke="#2a221c" stroke-width="1" fill="none"/><text x="61.2" y="9" fill="#a8977f" font-size="9" font-family="ui-monospace, Menlo, monospace">A1</text><defs><filter id="fade-wk0wc1n5s" filterUnits="userSpaceOnUse" x="61.43" y="60.33" width="161.37" height="86.32"><feGaussianBlur stdDeviation="1.26"/></filter><mask id="mask-wk0wc1n5s" maskUnits="userSpaceOnUse" x="61.43" y="60.33" width="161.37" height="86.32"><path d="M103.65 73.45L104.93 73.46L105.36 73.48L105.14 73.57L104.45 73.78L103.48 74.13L102.39 74.63L101.36 75.27L100.55 75.99L100.1 76.72L100.13 77.37L100.76 77.83L102.11 78L103.56 77.71L104.42 76.87L104.67 75.57L104.26 73.94L103.15 72.13L101.3 70.35L98.7 68.81L95.39 67.77L91.48 67.47L87.13 68.15L82.59 70.01L78.17 73.18L74.24 77.72L71.16 83.55L69.32 90.5L69.03 98.27L70.53 106.47L73.93 114.63L79.21 122.27L86.2 128.91L94.59 134.15L103.98 137.67L113.89 139.33L123.84 139.08L133.36 137.04L142.06 133.45L149.64 128.62L155.93 122.93L160.85 116.77L164.46 110.48L166.89 104.38L168.34 98.72L169.05 93.66L169.26 89.31L169.23 85.71L169.17 82.85L169.29 80.69L169.74 79.18L170.65 78.3L172.11 78L174.26 77.83L177.13 77.37L180.6 76.72L184.55 75.99L188.86 75.27L193.39 74.63L197.98 74.13L202.45 73.78L206.64 73.57L210.36 73.48L213.43 73.46L215.65 73.45" fill="none" stroke="#fff" stroke-width="4.2" stroke-linecap="round" stroke-linejoin="round" filter="url(#fade-wk0wc1n5s)"/></mask></defs><g mask="url(#mask-wk0wc1n5s)" opacity="0.65"><path d="M102.54 71.67L103.81 71.68L104.24 71.71L104.01 71.8L103.3 72.02L102.3 72.39L101.17 72.92L100.09 73.59L99.23 74.36L98.72 75.14L98.71 75.83L99.3 76.32L100.62 76.52L102.04 76.26L102.85 75.47L103.03 74.26L102.53 72.76L101.31 71.12L99.36 69.54L96.67 68.26L93.31 67.51L89.38 67.54L85.07 68.57L80.65 70.8L76.42 74.33L72.74 79.19L70.01 85.3L68.57 92.46L68.73 100.35L70.71 108.56L74.59 116.63L80.31 124.06L87.68 130.4L96.38 135.24L105.97 138.33L115.98 139.51L125.92 138.78L135.32 136.29L143.82 132.3L151.12 127.13L157.08 121.18L161.64 114.82L164.89 108.42L166.96 102.28L168.08 96.63L168.5 91.64L168.46 87.37L168.21 83.87L167.99 81.11L167.98 79.04L168.35 77.61L169.21 76.77L170.65 76.49L172.8 76.31L175.71 75.83L179.22 75.14L183.23 74.36L187.59 73.59L192.17 72.92L196.8 72.39L201.3 72.02L205.51 71.8L209.24 71.71L212.31 71.68L214.54 71.67" fill="none" stroke="#a17521" stroke-width="4.2" stroke-linecap="round" stroke-linejoin="round"/></g><path d="M103.65 73.45L104.93 73.46L105.36 73.48L105.14 73.57L104.45 73.78L103.48 74.13L102.39 74.63L101.36 75.27L100.55 75.99L100.1 76.72L100.13 77.37L100.76 77.83L102.11 78L103.56 77.71L104.42 76.87L104.67 75.57L104.26 73.94L103.15 72.13L101.3 70.35L98.7 68.81L95.39 67.77L91.48 67.47L87.13 68.15L82.59 70.01L78.17 73.18L74.24 77.72L71.16 83.55L69.32 90.5L69.03 98.27L70.53 106.47L73.93 114.63L79.21 122.27L86.2 128.91L94.59 134.15L103.98 137.67L113.89 139.33L123.84 139.08L133.36 137.04L142.06 133.45L149.64 128.62L155.93 122.93L160.85 116.77L164.46 110.48L166.89 104.38L168.34 98.72L169.05 93.66L169.26 89.31L169.23 85.71L169.17 82.85L169.29 80.69L169.74 79.18L170.65 78.3L172.11 78L174.26 77.83L177.13 77.37L180.6 76.72L184.55 75.99L188.86 75.27L193.39 74.63L197.98 74.13L202.45 73.78L206.64 73.57L210.36 73.48L213.43 73.46L215.65 73.45" fill="none" stroke="#a17521" stroke-width="1.4" stroke-linecap="round" stroke-linejoin="round"/><defs><filter id="fade-wk1le22im" filterUnits="userSpaceOnUse" x="1.1" y="61.95" width="162.02" height="86.26"><feGaussianBlur stdDeviation="1.26"/></filter><mask id="mask-wk1le22im" maskUnits="userSpaceOnUse" x="1.1" y="61.95" width="162.02" height="86.26"><path d="M9.35 75.15L11.58 75.15L14.64 75.18L18.36 75.27L22.55 75.47L27.03 75.82L31.62 76.33L36.14 76.96L40.45 77.69L44.4 78.42L47.87 79.07L50.74 79.52L52.9 79.7L54.35 79.99L55.26 80.88L55.71 82.38L55.83 84.54L55.78 87.41L55.75 91.01L55.96 95.36L56.66 100.42L58.11 106.08L60.54 112.17L64.15 118.46L69.08 124.63L75.36 130.32L82.95 135.15L91.65 138.74L101.17 140.78L111.12 141.03L121.03 139.37L130.42 135.84L138.81 130.61L145.79 123.97L151.07 116.33L154.48 108.17L155.98 99.97L155.69 92.2L153.85 85.25L150.77 79.41L146.83 74.88L142.41 71.7L137.87 69.84L133.53 69.16L129.62 69.46L126.31 70.51L123.71 72.05L121.86 73.83L120.74 75.63L120.33 77.26L120.58 78.56L121.44 79.4L122.9 79.7L124.24 79.52L124.87 79.07L124.9 78.42L124.45 77.69L123.64 76.96L122.62 76.33L121.53 75.82L120.55 75.47L119.86 75.27L119.64 75.18L120.08 75.15L121.35 75.15" fill="none" stroke="#fff" stroke-width="4.2" stroke-linecap="round" stroke-linejoin="round" filter="url(#fade-wk1le22im)"/></mask></defs><g mask="url(#mask-wk1le22im)" opacity="0.65"><path d="M8.24 76.93L10.46 76.93L13.52 76.96L17.23 77.04L21.4 77.23L25.85 77.56L30.4 78.04L34.87 78.64L39.12 79.32L43.02 80L46.45 80.61L49.29 81.04L51.43 81.2L52.91 81.52L53.87 82.45L54.41 84.03L54.65 86.28L54.76 89.25L54.94 92.95L55.41 97.39L56.41 102.5L58.19 108.18L60.97 114.23L64.94 120.41L70.22 126.39L76.84 131.81L84.7 136.3L93.61 139.49L103.25 141.07L113.21 140.84L123.03 138.72L132.21 134.74L140.29 129.12L146.89 122.18L151.73 114.33L154.66 106.07L155.68 97.89L154.94 90.23L152.69 83.49L149.28 77.94L145.07 73.73L140.47 70.91L135.82 69.42L131.43 69.09L127.53 69.72L124.28 71.06L121.77 72.85L120.02 74.84L119.01 76.81L118.69 78.57L119.01 79.96L119.92 80.85L121.41 81.18L122.78 81.03L123.45 80.61L123.52 80L123.12 79.32L122.37 78.64L121.4 78.04L120.35 77.56L119.4 77.23L118.73 77.04L118.52 76.96L118.96 76.93L120.24 76.93" fill="none" stroke="#902722" stroke-width="4.2" stroke-linecap="round" stroke-linejoin="round"/></g><path d="M9.35 75.15L11.58 75.15L14.64 75.18L18.36 75.27L22.55 75.47L27.03 75.82L31.62 76.33L36.14 76.96L40.45 77.69L44.4 78.42L47.87 79.07L50.74 79.52L52.9 79.7L54.35 79.99L55.26 80.88L55.71 82.38L55.83 84.54L55.78 87.41L55.75 91.01L55.96 95.36L56.66 100.42L58.11 106.08L60.54 112.17L64.15 118.46L69.08 124.63L75.36 130.32L82.95 135.15L91.65 138.74L101.17 140.78L111.12 141.03L121.03 139.37L130.42 135.84L138.81 130.61L145.79 123.97L151.07 116.33L154.48 108.17L155.98 99.97L155.69 92.2L153.85 85.25L150.77 79.41L146.83 74.88L142.41 71.7L137.87 69.84L133.53 69.16L129.62 69.46L126.31 70.51L123.71 72.05L121.86 73.83L120.74 75.63L120.33 77.26L120.58 78.56L121.44 79.4L122.9 79.7L124.24 79.52L124.87 79.07L124.9 78.42L124.45 77.69L123.64 76.96L122.62 76.33L121.53 75.82L120.55 75.47L119.86 75.27L119.64 75.18L120.08 75.15L121.35 75.15" fill="none" stroke="#902722" stroke-width="1.4" stroke-linecap="round" stroke-linejoin="round"/><defs><filter id="fade-wk219w0jkg" filterUnits="userSpaceOnUse" x="3.91" y="63.65" width="149" height="86.32"><feGaussianBlur stdDeviation="1.26"/></filter><mask id="mask-wk219w0jkg" maskUnits="userSpaceOnUse" x="3.91" y="63.65" width="149" height="86.32"><path d="M11.05 136.85L13.28 136.85L16.34 136.82L20.06 136.73L24.25 136.53L28.73 136.18L33.31 135.67L37.84 135.04L42.15 134.31L46.1 133.58L49.57 132.93L52.44 132.48L54.59 132.3L56.64 132.6L59.28 133.44L62.53 134.74L66.44 136.37L71.05 138.17L76.41 139.95L82.51 141.49L89.31 142.54L96.72 142.84L104.57 142.16L112.61 140.3L120.53 137.12L127.97 132.59L134.54 126.75L139.89 119.8L143.67 112.03L145.67 103.83L145.77 95.67L143.99 88.03L140.5 81.39L135.61 76.16L129.73 72.63L123.31 70.97L116.86 71.22L110.84 73.26L105.64 76.85L101.56 81.68L98.77 87.37L97.35 93.54L97.24 99.83L98.31 105.92L100.36 111.58L103.16 116.64L106.44 120.99L109.98 124.59L113.53 127.46L116.91 129.62L119.96 131.12L122.55 132.01L124.59 132.3L125.94 132.48L126.57 132.93L126.6 133.58L126.15 134.31L125.34 135.04L124.31 135.67L123.23 136.18L122.25 136.53L121.56 136.73L121.34 136.82L121.78 136.85L123.05 136.85" fill="none" stroke="#fff" stroke-width="4.2" stroke-linecap="round" stroke-linejoin="round" filter="url(#fade-wk219w0jkg)"/></mask></defs><g mask="url(#mask-wk219w0jkg)" opacity="0.65"><path d="M12.16 138.63L14.39 138.63L17.46 138.6L21.19 138.5L25.4 138.28L29.91 137.91L34.53 137.38L39.11 136.71L43.47 135.94L47.48 135.16L51 134.48L53.9 133.98L56.08 133.79L58.16 134.05L60.85 134.83L64.18 136.04L68.18 137.55L72.89 139.19L78.35 140.76L84.53 142.04L91.4 142.79L98.82 142.76L106.63 141.73L114.56 139.51L122.29 135.98L129.46 131.11L135.7 125L140.63 117.84L143.97 109.95L145.49 101.74L145.11 93.67L142.89 86.24L139.02 79.91L133.82 75.06L127.73 71.97L121.22 70.79L114.79 71.52L108.88 74.01L103.89 78.01L100.08 83.17L97.63 89.13L96.56 95.48L96.81 101.88L98.24 108.02L100.62 113.67L103.71 118.67L107.25 122.93L110.99 126.43L114.71 129.19L118.22 131.26L121.35 132.69L124 133.53L126.06 133.81L127.4 133.99L128 134.48L127.98 135.16L127.47 135.94L126.61 136.71L125.53 137.38L124.41 137.91L123.4 138.28L122.69 138.5L122.46 138.6L122.89 138.63L124.16 138.63" fill="none" stroke="#ffca39" stroke-width="4.2" stroke-linecap="round" stroke-linejoin="round"/></g><path d="M11.05 136.85L13.28 136.85L16.34 136.82L20.06 136.73L24.25 136.53L28.73 136.18L33.31 135.67L37.84 135.04L42.15 134.31L46.1 133.58L49.57 132.93L52.44 132.48L54.59 132.3L56.64 132.6L59.28 133.44L62.53 134.74L66.44 136.37L71.05 138.17L76.41 139.95L82.51 141.49L89.31 142.54L96.72 142.84L104.57 142.16L112.61 140.3L120.53 137.12L127.97 132.59L134.54 126.75L139.89 119.8L143.67 112.03L145.67 103.83L145.77 95.67L143.99 88.03L140.5 81.39L135.61 76.16L129.73 72.63L123.31 70.97L116.86 71.22L110.84 73.26L105.64 76.85L101.56 81.68L98.77 87.37L97.35 93.54L97.24 99.83L98.31 105.92L100.36 111.58L103.16 116.64L106.44 120.99L109.98 124.59L113.53 127.46L116.91 129.62L119.96 131.12L122.55 132.01L124.59 132.3L125.94 132.48L126.57 132.93L126.6 133.58L126.15 134.31L125.34 135.04L124.31 135.67L123.23 136.18L122.25 136.53L121.56 136.73L121.34 136.82L121.78 136.85L123.05 136.85" fill="none" stroke="#ffca39" stroke-width="1.4" stroke-linecap="round" stroke-linejoin="round"/><defs><filter id="fade-wk31oevp64" filterUnits="userSpaceOnUse" x="78.23" y="65.48" width="150.77" height="86.26"><feGaussianBlur stdDeviation="1.26"/></filter><mask id="mask-wk31oevp64" maskUnits="userSpaceOnUse" x="78.23" y="65.48" width="150.77" height="86.26"><path d="M108.75 138.55L110.02 138.54L110.45 138.52L110.23 138.43L109.54 138.22L108.57 137.87L107.48 137.37L106.46 136.73L105.65 136.01L105.19 135.28L105.22 134.63L105.85 134.17L107.2 134L109.24 133.7L111.83 132.82L114.88 131.31L118.26 129.15L121.82 126.29L125.35 122.69L128.64 118.34L131.43 113.28L133.48 107.62L134.55 101.52L134.44 95.23L133.02 89.07L130.23 83.38L126.15 78.55L120.95 74.96L114.93 72.92L108.48 72.67L102.07 74.33L96.18 77.85L91.29 83.09L87.8 89.73L86.03 97.37L86.12 105.53L88.12 113.73L91.91 121.5L97.25 128.45L103.83 134.28L111.27 138.82L119.18 141.99L127.22 143.85L135.07 144.53L142.48 144.23L149.29 143.19L155.39 141.65L160.74 139.87L165.35 138.06L169.26 136.43L172.52 135.13L175.15 134.29L177.2 134L179.35 134.17L182.22 134.63L185.69 135.28L189.65 136.01L193.96 136.73L198.48 137.37L203.07 137.87L207.54 138.22L211.73 138.43L215.45 138.52L218.52 138.54L220.75 138.55" fill="none" stroke="#fff" stroke-width="4.2" stroke-linecap="round" stroke-linejoin="round" filter="url(#fade-wk31oevp64)"/></mask></defs><g mask="url(#mask-wk31oevp64)" opacity="0.65"><path d="M109.86 136.76L111.13 136.76L111.57 136.74L111.36 136.65L110.69 136.46L109.74 136.14L108.7 135.66L107.73 135.06L106.97 134.38L106.57 133.7L106.65 133.09L107.31 132.66L108.67 132.5L110.69 132.18L113.23 131.25L116.19 129.67L119.44 127.42L122.83 124.45L126.16 120.75L129.19 116.31L131.69 111.2L133.41 105.52L134.13 99.47L133.65 93.29L131.87 87.31L128.76 81.88L124.4 77.4L118.99 74.21L112.85 72.62L106.39 72.85L100.07 74.98L94.39 78.95L89.8 84.57L86.71 91.52L85.37 99.36L85.94 107.62L88.42 115.81L92.66 123.46L98.4 130.21L105.32 135.76L113.02 139.97L121.13 142.78L129.28 144.28L137.17 144.61L144.57 143.98L151.31 142.64L157.33 140.85L162.58 138.86L167.09 136.88L170.91 135.13L174.09 133.74L176.68 132.85L178.69 132.52L180.81 132.66L183.65 133.09L187.07 133.7L190.97 134.38L195.23 135.06L199.7 135.66L204.24 136.14L208.69 136.46L212.86 136.65L216.57 136.74L219.63 136.76L221.86 136.77" fill="none" stroke="#f8433a" stroke-width="4.2" stroke-linecap="round" stroke-linejoin="round"/></g><path d="M108.75 138.55L110.02 138.54L110.45 138.52L110.23 138.43L109.54 138.22L108.57 137.87L107.48 137.37L106.46 136.73L105.65 136.01L105.19 135.28L105.22 134.63L105.85 134.17L107.2 134L109.24 133.7L111.83 132.82L114.88 131.31L118.26 129.15L121.82 126.29L125.35 122.69L128.64 118.34L131.43 113.28L133.48 107.62L134.55 101.52L134.44 95.23L133.02 89.07L130.23 83.38L126.15 78.55L120.95 74.96L114.93 72.92L108.48 72.67L102.07 74.33L96.18 77.85L91.29 83.09L87.8 89.73L86.03 97.37L86.12 105.53L88.12 113.73L91.91 121.5L97.25 128.45L103.83 134.28L111.27 138.82L119.18 141.99L127.22 143.85L135.07 144.53L142.48 144.23L149.29 143.19L155.39 141.65L160.74 139.87L165.35 138.06L169.26 136.43L172.52 135.13L175.15 134.29L177.2 134L179.35 134.17L182.22 134.63L185.69 135.28L189.65 136.01L193.96 136.73L198.48 137.37L203.07 137.87L207.54 138.22L211.73 138.43L215.45 138.52L218.52 138.54L220.75 138.55" fill="none" stroke="#f8433a" stroke-width="1.4" stroke-linecap="round" stroke-linejoin="round"/></svg>