<svg xmlns="http://www.w3.org/2000/svg" viewBox="0 0 948 220" width="948" height="220" role="img"><rect width="948" height="220" fill="#14110f"/><path d="M40 12L40 220" stroke="#4a3d31" stroke-width="1" fill="none"/><path d="M96 114L96 118" stroke="#2a221c" stroke-width="1" fill="none"/><path d="M152 114L152 118" stroke="#2a221c" stroke-width="1" fill="none"/><path d="M208 114L208 118" stroke="#2a221c" stroke-width="1" fill="none"/><path d="M264 12L264 220" stroke="#4a3d31" stroke-width="1" fill="none"/><path d="M320 114L320 118" stroke="#2a221c" stroke-width="1" fill="none"/><path d="M376 114L376 118" stroke="#2a221c" stroke-width="1" fill="none"/><path d="M432 114L432 118" stroke="#2a221c" stroke-width="1" fill="none"/><path d="M488 12L488 220" stroke="#4a3d31" stroke-width="1" fill="none"/><path d="M544 114L544 118" stroke="#2a221c" stroke-width="1" fill="none"/><path d="M600 114L600 118" stroke="#2a221c" stroke-width="1" fill="none"/><path d="M656 114L656 118" stroke="#2a221c" stroke-width="1" fill="none"/><path d="M712 12L712 220" stroke="#4a3d31" stroke-width="1" fill="none"/><path d="M768 114L768 118" stroke="#2a221c" stroke-width="1" fill="none"/><path d="M824 114L824 118" stroke="#2a221c" stroke-width="1" fill="none"/><path d="M880 114L880 118" stroke="#2a221c" stroke-width="1" fill="none"/><path d="M936 12L936 220" stroke="#4a3d31" stroke-width="1" fill="none"/><path d="M40 64L936 64" stroke="#2a221c" stroke-width="1" fill="none"/><text x="4" y="67" fill="#a8977f" font-size="9" font-family="ui-monospace, Menlo, monospace">across</text><path d="M40 168L936 168" stroke="#2a221c" stroke-width="1" fill="none"/><text x="4" y="171" fill="#a8977f" font-size="9" font-family="ui-monospace, Menlo, monospace">along</text><path d="M40 116L936 116" stroke="#4a3d31" stroke-width="1" fill="none"/><text x="43" y="9" fill="#a8977f" font-size="9" font-family="ui-monospace, Menlo, monospace">A1</text><text x="267" y="9" fill="#a8977f" font-size="9" font-family="ui-monospace, Menlo, monospace">A2</text><text x="491" y="9" fill="#a8977f" font-size="9" font-family="ui-monospace, Menlo, monospace">B1</text><text x="715" y="9" fill="#a8977f" font-size="9" font-family="ui-monospace, Menlo, monospace">B2</text><path d="M40 27.83L41.75 27.83L43.5 27.83L45.25 27.83L47 27.83L48.75 27.83L50.5 27.83L52.25 27.83L54 27.83L55.75 27.83L57.5 27.83L59.25 27.83L61 27.83L62.75 27.83L64.5 27.83L66.25 27.83L68 27.83L69.75 27.83L71.5 27.83L73.25 27.83L75 27.83L76.75 27.83L78.5 27.83L80.25 27.83L82 27.83L83.75 27.83L85.5 27.83L87.25 27.83L89 27.83L90.75 27.83L92.5 27.83L94.25 27.83L96 27.83L97.75 27.52L99.5 26.65L101.25 25.3L103 23.51L104.75 21.41L106.5 19.22L108.25 17.28L110 16.09L111.75 15.57L113.5 15.4L115.25 15.66L117 16.35L118.75 17.44L120.5 18.89L122.25 20.66L124 22.69L125.75 24.89L127.5 27.2L129.25 29.53L131 31.79L132.75 33.92L134.5 35.84L136.25 37.47L138 38.77L139.75 39.67L141.5 40.16L143.25 40.22L145 39.84L146.75 39.04L148.5 37.84L150.25 36.29L152 34.44L153.75 32.36L155.5 30.12L157.25 27.8L159 25.48L160.75 23.24L162.5 21.17L164.25 19.32L166 17.78L167.75 16.59L169.5 15.8L171.25 15.43L173 15.49L174.75 15.99L176.5 16.91L178.25 18.21L180 19.85L181.75 21.77L183.5 23.9L185.25 26.17L187 28.5L188.75 30.81L190.5 33.01L192.25 35.03L194 36.79L195.75 38.24L197.5 39.32L199.25 40L201 40.25L202.75 40.06L204.5 39.44L206.25 38.41L208 37.01L209.75 35.29L211.5 33.3L213.25 31.12L215 28.83L216.75 26.5L218.5 24.21L220.25 22.06L222 20.1L223.75 18.42L225.5 17.07L227.25 16.1L229 15.54L230.75 15.41L232.5 15.72L234.25 16.46L236 17.59L237.75 19.09L239.5 20.89L241.25 22.94L243 25.09L244.75 27.11L246.5 28.89L248.25 30.23L250 31.03L251.75 31.29L253.5 31.08L255.25 30.55L257 29.83L258.75 29.08L260.5 28.43L262.25 27.99L264 27.83L265.75 27.87L267.5 28L269.25 28.22L271 28.52L272.75 28.91L274.5 29.37L276.25 29.91L278 30.51L279.75 31.18L281.5 31.9L283.25 32.67L285 33.48L286.75 34.33L288.5 35.2L290.25 36.09L292 36.99L293.75 37.89L295.5 38.77L297.25 39.65L299 40.49L300.75 41.31L302.5 42.08L304.25 42.8L306 43.47L307.75 44.07L309.5 44.6L311.25 45.07L313 45.45L314.75 45.75L316.5 45.97L318.25 46.1L320 46.15L321.75 46.1L323.5 45.97L325.25 45.75L327 45.45L328.75 45.07L330.5 44.6L332.25 44.07L334 43.47L335.75 42.8L337.5 42.08L339.25 41.31L341 40.49L342.75 39.65L344.5 38.77L346.25 37.89L348 36.99L349.75 36.09L351.5 35.2L353.25 34.33L355 33.48L356.75 32.67L358.5 31.9L360.25 31.18L362 30.51L363.75 29.91L365.5 29.37L367.25 28.91L369 28.52L370.75 28.22L372.5 28L374.25 27.87L376 27.83L377.75 27.83L379.5 27.83L381.25 27.83L383 27.83L384.75 27.83L386.5 27.83L388.25 27.83L390 27.83L391.75 27.83L393.5 27.83L395.25 27.83L397 27.83L398.75 27.83L400.5 27.83L402.25 27.83L404 27.83L405.75 27.83L407.5 27.83L409.25 27.83L411 27.83L412.75 27.83L414.5 27.83L416.25 27.83L418 27.83L419.75 27.83L421.5 27.83L423.25 27.83L425 27.83L426.75 27.83L428.5 27.83L430.25 27.83L432 27.83L433.75 27.83L435.5 27.83L437.25 27.83L439 27.83L440.75 27.83L442.5 27.83L444.25 27.83L446 27.83L447.75 27.83L449.5 27.83L451.25 27.83L453 27.83L454.75 27.83L456.5 27.83L458.25 27.83L460 27.83L461.75 27.83L463.5 27.83L465.25 27.83L467 27.83L468.75 27.83L470.5 27.83L472.25 27.83L474 27.83L475.75 27.83L477.5 27.83L479.25 27.83L481 27.83L482.75 27.83L484.5 27.83L486.25 27.83L488 27.83L489.75 28L491.5 28.41L493.25 28.88L495 29.18L496.75 29.15L498.5 28.8L500.25 28.39L502 28.06L503.75 27.86L505.5 27.83L507.25 27.83L509 27.83L510.75 27.83L512.5 27.83L514.25 27.83L516 27.83L517.75 27.83L519.5 27.83L521.25 27.83L523 27.83L524.75 27.83L526.5 27.83L528.25 27.83L530 27.83L531.75 27.83L533.5 27.83L535.25 27.83L537 27.83L538.75 27.83L540.5 27.83L542.25 27.83L544 27.83L545.75 28.14L547.5 28.99L549.25 30.3L551 32L552.75 33.96L554.5 35.99L556.25 37.8L558 38.97L559.75 39.6L561.5 40.05L563.25 40.25L565 40.16L566.75 39.79L568.5 39.16L570.25 38.27L572 37.14L573.75 35.8L575.5 34.29L577.25 32.62L579 30.85L580.75 29.01L582.5 27.15L584.25 25.3L586 23.5L587.75 21.81L589.5 20.25L591.25 18.86L593 17.67L594.75 16.71L596.5 16.01L598.25 15.57L600 15.4L601.75 15.52L603.5 15.91L605.25 16.57L607 17.49L608.75 18.64L610.5 19.99L612.25 21.53L614 23.2L615.75 24.98L617.5 26.82L619.25 28.69L621 30.54L622.75 32.32L624.5 34.01L626.25 35.55L628 36.92L629.75 38.09L631.5 39.02L633.25 39.7L635 40.11L636.75 40.25L638.5 40.11L640.25 39.69L642 39L643.75 38.06L645.5 36.89L647.25 35.51L649 33.96L650.75 32.28L652.5 30.49L654.25 28.64L656 26.78L657.75 24.93L659.5 23.16L661.25 21.48L663 19.96L664.75 18.6L666.5 17.46L668.25 16.55L670 15.9L671.75 15.51L673.5 15.4L675.25 15.57L677 16.02L678.75 16.74L680.5 17.7L682.25 18.89L684 20.29L685.75 21.85L687.5 23.55L689.25 25.35L691 27.14L692.75 28.77L694.5 30.14L696.25 31.08L698 31.56L699.75 31.58L701.5 31.23L703.25 30.61L705 29.85L706.75 29.08L708.5 28.43L710.25 27.99L712 27.83L713.75 27.83L715.5 27.83L717.25 27.83L719 27.83L720.75 27.83L722.5 27.83L724.25 27.83L726 27.83L727.75 27.83L729.5 27.83L731.25 27.83L733 27.83L734.75 27.83L736.5 27.83L738.25 27.83L740 27.83L741.75 27.83L743.5 27.83L745.25 27.88L747 28.02L748.75 28.24L750.5 28.53L752.25 28.88L754 29.27L755.75 29.7L757.5 30.15L759.25 30.61L761 31.07L762.75 31.52L764.5 31.95L766.25 32.34L768 32.69L769.75 32.98L771.5 33.2L773.25 33.34L775 33.39L776.75 33.37L778.5 33.3L780.25 33.2L782 33.05L783.75 32.88L785.5 32.68L787.25 32.45L789 32.21L790.75 31.95L792.5 31.67L794.25 31.39L796 31.1L797.75 30.8L799.5 30.51L801.25 30.21L803 29.92L804.75 29.61L806.5 29.28L808.25 28.95L810 28.64L811.75 28.39L813.5 28.18L815.25 28.03L817 27.93L818.75 27.87L820.5 27.84L822.25 27.83L824 27.83L825.75 28.22L827.5 29.31L829.25 30.93L831 32.94L832.75 35.17L834.5 37.48L836.25 39.73L838 41.8L839.75 43.57L841.5 44.94L843.25 45.83L845 46.15L846.75 45.98L848.5 45.51L850.25 44.79L852 43.87L853.75 42.86L855.5 41.87L857.25 41.01L859 40.42L860.75 40.25L862.5 40.63L864.25 41.67L866 43.45L867.75 45.99L869.5 49.26L871.25 53.15L873 57.5L874.75 62.09L876.5 66.66L878.25 70.93L880 74.65L881.75 77.58L883.5 79.56L885.25 80.48L887 80.34L888.75 79.2L890.5 77.19L892.25 74.49L894 71.31L895.75 67.85L897.5 64.33L899.25 60.92L901 57.75L902.75 54.92L904.5 52.48L906.25 50.47L908 48.86L909.75 47.65L911.5 46.81L913.25 46.31L915 46.15L916.75 45.83L918.5 44.94L920.25 43.57L922 41.8L923.75 39.73L925.5 37.48L927.25 35.17L929 32.94L930.75 30.93L932.5 29.31L934.25 28.22L936 27.83" fill="none" stroke="#a17521" stroke-width="1.4" stroke-linecap="round" stroke-linejoin="round"/><path d="M40 95.37L41.75 95.37L43.5 95.37L45.25 95.37L47 95.37L48.75 95.37L50.5 95.37L52.25 95.37L54 95.37L55.75 95.37L57.5 95.37L59.25 95.37L61 95.37L62.75 95.37L64.5 95.37L66.25 95.37L68 95.37L69.75 95.37L71.5 95.37L73.25 95.37L75 95.37L76.75 95.37L78.5 95.37L80.25 95.37L82 95.37L83.75 95.37L85.5 95.37L87.25 95.37L89 95.37L90.75 95.37L92.5 95.37L94.25 95.37L96 95.37L97.75 95.06L99.5 94.2L101.25 92.85L103 91.06L104.75 88.96L106.5 86.77L108.25 84.83L110 83.63L111.75 83.12L113.5 82.95L115.25 83.21L117 83.89L118.75 84.99L120.5 86.44L122.25 88.21L124 90.23L125.75 92.44L127.5 94.75L129.25 97.07L131 99.34L132.75 101.47L134.5 103.39L136.25 105.02L138 106.31L139.75 107.22L141.5 107.71L143.25 107.77L145 107.39L146.75 106.59L148.5 105.39L150.25 103.84L152 101.99L153.75 99.91L155.5 97.67L157.25 95.35L159 93.03L160.75 90.79L162.5 88.71L164.25 86.87L166 85.33L167.75 84.14L169.5 83.35L171.25 82.98L173 83.04L174.75 83.54L176.5 84.46L178.25 85.76L180 87.4L181.75 89.32L183.5 91.45L185.25 93.72L187 96.05L188.75 98.36L190.5 100.56L192.25 102.58L194 104.34L195.75 105.79L197.5 106.87L199.25 107.55L201 107.8L202.75 107.61L204.5 106.99L206.25 105.96L208 104.56L209.75 102.84L211.5 100.85L213.25 98.67L215 96.38L216.75 94.05L218.5 91.76L220.25 89.6L222 87.65L223.75 85.97L225.5 84.62L227.25 83.64L229 83.09L230.75 82.96L232.5 83.27L234.25 84.01L236 85.14L237.75 86.64L239.5 88.44L241.25 90.49L243 92.64L244.75 94.66L246.5 96.44L248.25 97.78L250 98.58L251.75 98.83L253.5 98.63L255.25 98.1L257 97.38L258.75 96.63L260.5 95.97L262.25 95.53L264 95.37L265.75 95.33L267.5 95.2L269.25 94.98L271 94.68L272.75 94.29L274.5 93.83L276.25 93.29L278 92.69L279.75 92.02L281.5 91.3L283.25 90.53L285 89.72L286.75 88.87L288.5 88L290.25 87.11L292 86.21L293.75 85.31L295.5 84.43L297.25 83.55L299 82.71L300.75 81.89L302.5 81.12L304.25 80.4L306 79.73L307.75 79.13L309.5 78.6L311.25 78.13L313 77.75L314.75 77.45L316.5 77.23L318.25 77.1L320 77.05L321.75 77.1L323.5 77.23L325.25 77.45L327 77.75L328.75 78.13L330.5 78.6L332.25 79.13L334 79.73L335.75 80.4L337.5 81.12L339.25 81.89L341 82.71L342.75 83.55L344.5 84.43L346.25 85.31L348 86.21L349.75 87.11L351.5 88L353.25 88.87L355 89.72L356.75 90.53L358.5 91.3L360.25 92.02L362 92.69L363.75 93.29L365.5 93.83L367.25 94.29L369 94.68L370.75 94.98L372.5 95.2L374.25 95.33L376 95.37L377.75 94.93L379.5 93.73L381.25 91.94L383 89.75L384.75 87.35L386.5 84.91L388.25 82.67L390 81.01L391.75 80.03L393.5 79.84L395.25 80.41L397 80.93L398.75 81.12L400.5 80.75L402.25 79.61L404 77.72L405.75 75.17L407.5 72.07L409.25 68.57L411 64.81L412.75 60.96L414.5 57.19L416.25 53.67L418 50.56L419.75 47.98L421.5 46.06L423.25 44.87L425 44.48L426.75 44.89L428.5 46.09L430.25 48.03L432 50.62L433.75 53.75L435.5 57.28L437.25 61.05L439 64.9L440.75 68.65L442.5 72.15L444.25 75.23L446 77.77L447.75 79.65L449.5 80.78L451.25 81.12L453 80.65L454.75 79.4L456.5 77.41L458.25 74.78L460 71.62L461.75 68.08L463.5 64.3L465.25 60.45L467 56.85L468.75 53.91L470.5 51.61L472.25 49.91L474 48.35L475.75 46.14L477.5 43.42L479.25 40.48L481 37.59L482.75 34.82L484.5 32.47L486.25 30.84L488 30.23L489.75 30.37L491.5 30.69L493.25 31.02L495 31.19L496.75 31.13L498.5 30.87L500.25 30.6L502 30.38L503.75 30.25L505.5 30.23L507.25 30.23L509 30.23L510.75 30.23L512.5 30.23L514.25 30.23L516 30.23L517.75 30.23L519.5 30.23L521.25 30.23L523 30.23L524.75 30.23L526.5 30.23L528.25 30.23L530 30.23L531.75 30.23L533.5 30.23L535.25 30.23L537 30.23L538.75 30.23L540.5 30.23L542.25 30.23L544 30.23L545.75 29.92L547.5 29.06L549.25 27.75L551 26.05L552.75 24.09L554.5 22.06L556.25 20.26L558 19.09L559.75 18.45L561.5 18L563.25 17.8L565 17.89L566.75 18.26L568.5 18.89L570.25 19.79L572 20.91L573.75 22.25L575.5 23.77L577.25 25.43L579 27.2L580.75 29.04L582.5 30.9L584.25 32.75L586 34.55L587.75 36.24L589.5 37.8L591.25 39.19L593 40.38L594.75 41.34L596.5 42.04L598.25 42.49L600 42.65L601.75 42.53L603.5 42.14L605.25 41.48L607 40.56L608.75 39.41L610.5 38.06L612.25 36.53L614 34.85L615.75 33.07L617.5 31.23L619.25 29.36L621 27.52L622.75 25.73L624.5 24.05L626.25 22.5L628 21.13L629.75 19.97L631.5 19.03L633.25 18.35L635 17.94L636.75 17.8L638.5 17.94L640.25 18.36L642 19.05L643.75 19.99L645.5 21.16L647.25 22.54L649 24.09L650.75 25.77L652.5 27.56L654.25 29.41L656 31.28L657.75 33.12L659.5 34.9L661.25 36.57L663 38.1L664.75 39.45L666.5 40.59L668.25 41.5L670 42.15L671.75 42.54L673.5 42.65L675.25 42.48L677 42.03L678.75 41.32L680.5 40.35L682.25 39.16L684 37.76L685.75 36.2L687.5 34.5L689.25 32.71L691 30.91L692.75 29.28L694.5 27.91L696.25 26.97L698 26.49L699.75 26.47L701.5 26.83L703.25 27.45L705 28.2L706.75 28.97L708.5 29.63L710.25 30.07L712 30.23L713.75 30.28L715.5 30.44L717.25 30.7L719 31.06L720.75 31.5L722.5 32.03L724.25 32.65L726 33.35L727.75 34.15L729.5 35.04L731.25 36.04L733 37.15L734.75 38.38L736.5 39.74L738.25 41.25L740 42.9L741.75 44.69L743.5 46.61L745.25 48.67L747 50.84L748.75 53.11L750.5 55.44L752.25 57.82L754 60.2L755.75 62.56L757.5 64.86L759.25 67.07L761 69.15L762.75 71.08L764.5 72.82L766.25 74.36L768 75.66L769.75 76.7L771.5 77.47L773.25 77.95L775 78.11L776.75 78.17L778.5 78.35L780.25 78.65L782 79.04L783.75 79.52L785.5 80.1L787.25 80.74L789 81.45L790.75 82.23L792.5 83.05L794.25 83.91L796 84.8L797.75 85.71L799.5 86.64L801.25 87.57L803 88.49L804.75 89.36L806.5 90.17L808.25 90.94L810 91.67L811.75 92.37L813.5 93.04L815.25 93.66L817 94.22L818.75 94.69L820.5 95.06L822.25 95.29L824 95.37L825.75 94.98L827.5 93.89L829.25 92.27L831 90.26L832.75 88.03L834.5 85.72L836.25 83.47L838 81.4L839.75 79.63L841.5 78.26L843.25 77.37L845 77.05L846.75 76.89L848.5 76.39L850.25 75.55L852 74.34L853.75 72.73L855.5 70.72L857.25 68.28L859 65.45L860.75 62.28L862.5 58.87L864.25 55.35L866 51.89L867.75 48.71L869.5 46.01L871.25 44L873 42.86L874.75 42.72L876.5 43.64L878.25 45.62L880 48.55L881.75 52.27L883.5 56.54L885.25 61.11L887 65.7L888.75 70.05L890.5 73.94L892.25 77.21L894 79.75L895.75 81.53L897.5 82.57L899.25 82.95L901 82.78L902.75 82.19L904.5 81.33L906.25 80.34L908 79.33L909.75 78.41L911.5 77.69L913.25 77.22L915 77.05L916.75 77.37L918.5 78.26L920.25 79.63L922 81.4L923.75 83.47L925.5 85.72L927.25 88.03L929 90.26L930.75 92.27L932.5 93.89L934.25 94.98L936 95.37" fill="none" stroke="#902722" stroke-width="1.4" stroke-linecap="round" stroke-linejoin="round"/><path d="M40 97.77L41.75 97.77L43.5 97.77L45.25 97.77L47 97.77L48.75 97.77L50.5 97.77L52.25 97.77L54 97.77L55.75 97.77L57.5 97.77L59.25 97.77L61 97.77L62.75 97.77L64.5 97.77L66.25 97.77L68 97.77L69.75 97.77L71.5 97.77L73.25 97.77L75 97.77L76.75 97.77L78.5 97.77L80.25 97.77L82 97.77L83.75 97.77L85.5 97.77L87.25 97.77L89 97.77L90.75 97.77L92.5 97.77L94.25 97.77L96 97.77L97.75 98.08L99.5 98.95L101.25 100.3L103 102.09L104.75 104.19L106.5 106.38L108.25 108.32L110 109.51L111.75 110.03L113.5 110.2L115.25 109.94L117 109.25L118.75 108.16L120.5 106.71L122.25 104.94L124 102.91L125.75 100.71L127.5 98.4L129.25 96.07L131 93.81L132.75 91.68L134.5 89.76L136.25 88.13L138 86.83L139.75 85.93L141.5 85.44L143.25 85.38L145 85.76L146.75 86.56L148.5 87.76L150.25 89.31L152 91.16L153.75 93.24L155.5 95.48L157.25 97.8L159 100.12L160.75 102.36L162.5 104.43L164.25 106.28L166 107.82L167.75 109.01L169.5 109.8L171.25 110.17L173 110.11L174.75 109.61L176.5 108.69L178.25 107.39L180 105.75L181.75 103.83L183.5 101.7L185.25 99.43L187 97.1L188.75 94.79L190.5 92.59L192.25 90.57L194 88.81L195.75 87.36L197.5 86.28L199.25 85.6L201 85.35L202.75 85.54L204.5 86.16L206.25 87.19L208 88.59L209.75 90.31L211.5 92.3L213.25 94.48L215 96.77L216.75 99.1L218.5 101.39L220.25 103.54L222 105.5L223.75 107.18L225.5 108.53L227.25 109.5L229 110.06L230.75 110.19L232.5 109.88L234.25 109.14L236 108.01L237.75 106.51L239.5 104.71L241.25 102.66L243 100.51L244.75 98.49L246.5 96.71L248.25 95.37L250 94.57L251.75 94.31L253.5 94.52L255.25 95.05L257 95.77L258.75 96.52L260.5 97.17L262.25 97.61L264 97.77L265.75 97.73L267.5 97.6L269.25 97.38L271 97.08L272.75 96.69L274.5 96.23L276.25 95.69L278 95.09L279.75 94.42L281.5 93.7L283.25 92.93L285 92.12L286.75 91.27L288.5 90.4L290.25 89.51L292 88.61L293.75 87.71L295.5 86.83L297.25 85.95L299 85.11L300.75 84.29L302.5 83.52L304.25 82.8L306 82.13L307.75 81.53L309.5 81L311.25 80.53L313 80.15L314.75 79.85L316.5 79.63L318.25 79.5L320 79.45L321.75 79.5L323.5 79.63L325.25 79.85L327 80.15L328.75 80.53L330.5 81L332.25 81.53L334 82.13L335.75 82.8L337.5 83.52L339.25 84.29L341 85.11L342.75 85.95L344.5 86.83L346.25 87.71L348 88.61L349.75 89.51L351.5 90.4L353.25 91.27L355 92.12L356.75 92.93L358.5 93.7L360.25 94.42L362 95.09L363.75 95.69L365.5 96.23L367.25 96.69L369 97.08L370.75 97.38L372.5 97.6L374.25 97.73L376 97.77L377.75 97.77L379.5 97.77L381.25 97.77L383 97.77L384.75 97.77L386.5 97.77L388.25 97.77L390 97.77L391.75 97.77L393.5 97.77L395.25 97.77L397 97.77L398.75 97.77L400.5 97.77L402.25 97.77L404 97.77L405.75 97.77L407.5 97.77L409.25 97.77L411 97.77L412.75 97.77L414.5 97.77L416.25 97.77L418 97.77L419.75 97.77L421.5 97.77L423.25 97.77L425 97.77L426.75 97.77L428.5 97.77L430.25 97.77L432 97.77L433.75 97.77L435.5 97.77L437.25 97.77L439 97.77L440.75 97.77L442.5 97.77L444.25 97.77L446 97.77L447.75 97.77L449.5 97.77L451.25 97.77L453 97.77L454.75 97.77L456.5 97.77L458.25 97.77L460 97.77L461.75 97.77L463.5 97.77L465.25 97.77L467 97.77L468.75 97.77L470.5 97.77L472.25 97.77L474 97.77L475.75 97.77L477.5 97.77L479.25 97.77L481 97.77L482.75 97.77L484.5 97.77L486.25 97.77L488 97.77L489.75 97.6L491.5 97.19L493.25 96.72L495 96.42L496.75 96.45L498.5 96.8L500.25 97.21L502 97.54L503.75 97.74L505.5 97.77L507.25 97.77L509 97.77L510.75 97.77L512.5 97.77L514.25 97.77L516 97.77L517.75 97.77L519.5 97.77L521.25 97.77L523 97.77L524.75 97.77L526.5 97.77L528.25 97.77L530 97.77L531.75 97.77L533.5 97.77L535.25 97.77L537 97.77L538.75 97.77L540.5 97.77L542.25 97.77L544 97.77L545.75 97.46L547.5 96.61L549.25 95.3L551 93.6L552.75 91.64L554.5 89.61L556.25 87.8L558 86.63L559.75 86L561.5 85.55L563.25 85.35L565 85.44L566.75 85.81L568.5 86.44L570.25 87.33L572 88.46L573.75 89.8L575.5 91.31L577.25 92.98L579 94.75L580.75 96.59L582.5 98.45L584.25 100.3L586 102.1L587.75 103.79L589.5 105.35L591.25 106.74L593 107.93L594.75 108.89L596.5 109.59L598.25 110.03L600 110.2L601.75 110.08L603.5 109.69L605.25 109.03L607 108.11L608.75 106.96L610.5 105.61L612.25 104.07L614 102.4L615.75 100.62L617.5 98.78L619.25 96.91L621 95.06L622.75 93.28L624.5 91.59L626.25 90.05L628 88.68L629.75 87.51L631.5 86.58L633.25 85.9L635 85.49L636.75 85.35L638.5 85.49L640.25 85.91L642 86.6L643.75 87.54L645.5 88.71L647.25 90.09L649 91.64L650.75 93.32L652.5 95.11L654.25 96.96L656 98.82L657.75 100.67L659.5 102.44L661.25 104.12L663 105.64L664.75 107L666.5 108.14L668.25 109.05L670 109.7L671.75 110.09L673.5 110.2L675.25 110.03L677 109.58L678.75 108.86L680.5 107.9L682.25 106.71L684 105.31L685.75 103.75L687.5 102.05L689.25 100.25L691 98.46L692.75 96.83L694.5 95.46L696.25 94.52L698 94.04L699.75 94.02L701.5 94.37L703.25 94.99L705 95.75L706.75 96.52L708.5 97.17L710.25 97.61L712 97.77L713.75 97.77L715.5 97.77L717.25 97.77L719 97.77L720.75 97.77L722.5 97.77L724.25 97.77L726 97.77L727.75 97.77L729.5 97.77L731.25 97.77L733 97.77L734.75 97.77L736.5 97.77L738.25 97.77L740 97.77L741.75 97.77L743.5 97.77L745.25 97.72L747 97.58L748.75 97.36L750.5 97.07L752.25 96.72L754 96.33L755.75 95.9L757.5 95.45L759.25 94.99L761 94.53L762.75 94.08L764.5 93.65L766.25 93.26L768 92.91L769.75 92.62L771.5 92.4L773.25 92.26L775 92.21L776.75 92.23L778.5 92.3L780.25 92.4L782 92.55L783.75 92.72L785.5 92.92L787.25 93.15L789 93.39L790.75 93.65L792.5 93.93L794.25 94.21L796 94.5L797.75 94.8L799.5 95.09L801.25 95.39L803 95.68L804.75 95.99L806.5 96.32L808.25 96.65L810 96.96L811.75 97.21L813.5 97.42L815.25 97.57L817 97.67L818.75 97.73L820.5 97.76L822.25 97.77L824 97.77L825.75 97.38L827.5 96.29L829.25 94.67L831 92.66L832.75 90.43L834.5 88.12L836.25 85.87L838 83.8L839.75 82.03L841.5 80.66L843.25 79.77L845 79.45L846.75 79.62L848.5 80.09L850.25 80.81L852 81.73L853.75 82.74L855.5 83.73L857.25 84.59L859 85.18L860.75 85.35L862.5 84.97L864.25 83.93L866 82.15L867.75 79.61L869.5 76.34L871.25 72.45L873 68.1L874.75 63.51L876.5 58.94L878.25 54.67L880 50.95L881.75 48.02L883.5 46.04L885.25 45.12L887 45.26L888.75 46.4L890.5 48.41L892.25 51.11L894 54.29L895.75 57.75L897.5 61.27L899.25 64.68L901 67.85L902.75 70.68L904.5 73.12L906.25 75.13L908 76.74L909.75 77.95L911.5 78.79L913.25 79.29L915 79.45L916.75 79.77L918.5 80.66L920.25 82.03L922 83.8L923.75 85.87L925.5 88.12L927.25 90.43L929 92.66L930.75 94.67L932.5 96.29L934.25 97.38L936 97.77" fill="none" stroke="#ffca39" stroke-width="1.4" stroke-linecap="round" stroke-linejoin="round"/><path d="M40 35.03L41.75 35.03L43.5 35.03L45.25 35.03L47 35.03L48.75 35.03L50.5 35.03L52.25 35.03L54 35.03L55.75 35.03L57.5 35.03L59.25 35.03L61 35.03L62.75 35.03L64.5 35.03L66.25 35.03L68 35.03L69.75 35.03L71.5 35.03L73.25 35.03L75 35.03L76.75 35.03L78.5 35.03L80.25 35.03L82 35.03L83.75 35.03L85.5 35.03L87.25 35.03L89 35.03L90.75 35.03L92.5 35.03L94.25 35.03L96 35.03L97.75 35.34L99.5 36.2L101.25 37.55L103 39.34L104.75 41.44L106.5 43.63L108.25 45.57L110 46.77L111.75 47.28L113.5 47.45L115.25 47.19L117 46.51L118.75 45.41L120.5 43.96L122.25 42.19L124 40.17L125.75 37.96L127.5 35.65L129.25 33.33L131 31.06L132.75 28.93L134.5 27.01L136.25 25.38L138 24.09L139.75 23.18L141.5 22.69L143.25 22.63L145 23.01L146.75 23.81L148.5 25.01L150.25 26.56L152 28.41L153.75 30.49L155.5 32.73L157.25 35.05L159 37.37L160.75 39.61L162.5 41.69L164.25 43.53L166 45.07L167.75 46.26L169.5 47.05L171.25 47.42L173 47.36L174.75 46.86L176.5 45.94L178.25 44.64L180 43L181.75 41.08L183.5 38.95L185.25 36.68L187 34.35L188.75 32.04L190.5 29.84L192.25 27.82L194 26.06L195.75 24.61L197.5 23.53L199.25 22.85L201 22.6L202.75 22.79L204.5 23.41L206.25 24.44L208 25.84L209.75 27.56L211.5 29.55L213.25 31.73L215 34.02L216.75 36.35L218.5 38.64L220.25 40.8L222 42.75L223.75 44.43L225.5 45.78L227.25 46.76L229 47.31L230.75 47.44L232.5 47.13L234.25 46.39L236 45.26L237.75 43.76L239.5 41.96L241.25 39.91L243 37.76L244.75 35.74L246.5 33.96L248.25 32.62L250 31.82L251.75 31.57L253.5 31.77L255.25 32.3L257 33.02L258.75 33.77L260.5 34.43L262.25 34.87L264 35.03L265.75 35.07L267.5 35.2L269.25 35.42L271 35.72L272.75 36.11L274.5 36.57L276.25 37.11L278 37.71L279.75 38.38L281.5 39.1L283.25 39.87L285 40.68L286.75 41.53L288.5 42.4L290.25 43.29L292 44.19L293.75 45.09L295.5 45.97L297.25 46.85L299 47.69L300.75 48.51L302.5 49.28L304.25 50L306 50.67L307.75 51.27L309.5 51.8L311.25 52.27L313 52.65L314.75 52.95L316.5 53.17L318.25 53.3L320 53.35L321.75 53.3L323.5 53.17L325.25 52.95L327 52.65L328.75 52.27L330.5 51.8L332.25 51.27L334 50.67L335.75 50L337.5 49.28L339.25 48.51L341 47.69L342.75 46.85L344.5 45.97L346.25 45.09L348 44.19L349.75 43.29L351.5 42.4L353.25 41.53L355 40.68L356.75 39.87L358.5 39.1L360.25 38.38L362 37.71L363.75 37.11L365.5 36.57L367.25 36.11L369 35.72L370.75 35.42L372.5 35.2L374.25 35.07L376 35.03L377.75 35.47L379.5 36.67L381.25 38.46L383 40.65L384.75 43.05L386.5 45.49L388.25 47.73L390 49.39L391.75 50.37L393.5 50.56L395.25 49.99L397 49.47L398.75 49.28L400.5 49.65L402.25 50.79L404 52.68L405.75 55.23L407.5 58.33L409.25 61.83L411 65.59L412.75 69.44L414.5 73.21L416.25 76.73L418 79.84L419.75 82.42L421.5 84.34L423.25 85.53L425 85.92L426.75 85.51L428.5 84.31L430.25 82.37L432 79.78L433.75 76.65L435.5 73.12L437.25 69.35L439 65.5L440.75 61.75L442.5 58.25L444.25 55.17L446 52.63L447.75 50.75L449.5 49.62L451.25 49.28L453 49.75L454.75 51L456.5 52.99L458.25 55.62L460 58.78L461.75 62.32L463.5 66.1L465.25 69.95L467 73.55L468.75 76.49L470.5 78.79L472.25 80.49L474 82.05L475.75 84.26L477.5 86.98L479.25 89.92L481 92.81L482.75 95.58L484.5 97.93L486.25 99.56L488 100.17L489.75 100.03L491.5 99.71L493.25 99.38L495 99.21L496.75 99.27L498.5 99.53L500.25 99.8L502 100.02L503.75 100.15L505.5 100.17L507.25 100.17L509 100.17L510.75 100.17L512.5 100.17L514.25 100.17L516 100.17L517.75 100.17L519.5 100.17L521.25 100.17L523 100.17L524.75 100.17L526.5 100.17L528.25 100.17L530 100.17L531.75 100.17L533.5 100.17L535.25 100.17L537 100.17L538.75 100.17L540.5 100.17L542.25 100.17L544 100.17L545.75 100.48L547.5 101.34L549.25 102.65L551 104.35L552.75 106.31L554.5 108.34L556.25 110.14L558 111.31L559.75 111.95L561.5 112.4L563.25 112.6L565 112.51L566.75 112.14L568.5 111.51L570.25 110.61L572 109.49L573.75 108.15L575.5 106.63L577.25 104.97L579 103.2L580.75 101.36L582.5 99.5L584.25 97.65L586 95.85L587.75 94.16L589.5 92.6L591.25 91.21L593 90.02L594.75 89.06L596.5 88.36L598.25 87.91L600 87.75L601.75 87.87L603.5 88.26L605.25 88.92L607 89.84L608.75 90.99L610.5 92.34L612.25 93.87L614 95.55L615.75 97.33L617.5 99.17L619.25 101.04L621 102.88L622.75 104.67L624.5 106.35L626.25 107.9L628 109.27L629.75 110.43L631.5 111.37L633.25 112.05L635 112.46L636.75 112.6L638.5 112.46L640.25 112.04L642 111.35L643.75 110.41L645.5 109.24L647.25 107.86L649 106.31L650.75 104.63L652.5 102.84L654.25 100.99L656 99.12L657.75 97.28L659.5 95.5L661.25 93.83L663 92.3L664.75 90.95L666.5 89.81L668.25 88.9L670 88.25L671.75 87.86L673.5 87.75L675.25 87.92L677 88.37L678.75 89.08L680.5 90.05L682.25 91.24L684 92.64L685.75 94.2L687.5 95.9L689.25 97.69L691 99.49L692.75 101.12L694.5 102.49L696.25 103.43L698 103.91L699.75 103.93L701.5 103.57L703.25 102.95L705 102.2L706.75 101.43L708.5 100.77L710.25 100.33L712 100.17L713.75 100.12L715.5 99.96L717.25 99.7L719 99.34L720.75 98.9L722.5 98.37L724.25 97.75L726 97.05L727.75 96.25L729.5 95.36L731.25 94.36L733 93.25L734.75 92.02L736.5 90.66L738.25 89.15L740 87.5L741.75 85.71L743.5 83.79L745.25 81.73L747 79.56L748.75 77.29L750.5 74.96L752.25 72.58L754 70.2L755.75 67.84L757.5 65.54L759.25 63.33L761 61.25L762.75 59.32L764.5 57.58L766.25 56.04L768 54.74L769.75 53.7L771.5 52.93L773.25 52.45L775 52.29L776.75 52.23L778.5 52.05L780.25 51.75L782 51.36L783.75 50.88L785.5 50.3L787.25 49.66L789 48.95L790.75 48.17L792.5 47.35L794.25 46.49L796 45.6L797.75 44.69L799.5 43.76L801.25 42.83L803 41.91L804.75 41.04L806.5 40.23L808.25 39.46L810 38.73L811.75 38.03L813.5 37.36L815.25 36.74L817 36.18L818.75 35.71L820.5 35.34L822.25 35.11L824 35.03L825.75 35.42L827.5 36.51L829.25 38.13L831 40.14L832.75 42.37L834.5 44.68L836.25 46.93L838 49L839.75 50.77L841.5 52.14L843.25 53.03L845 53.35L846.75 53.51L848.5 54.01L850.25 54.85L852 56.06L853.75 57.67L855.5 59.68L857.25 62.12L859 64.95L860.75 68.12L862.5 71.53L864.25 75.05L866 78.51L867.75 81.69L869.5 84.39L871.25 86.4L873 87.54L874.75 87.68L876.5 86.76L878.25 84.78L880 81.85L881.75 78.13L883.5 73.86L885.25 69.29L887 64.7L888.75 60.35L890.5 56.46L892.25 53.19L894 50.65L895.75 48.87L897.5 47.83L899.25 47.45L901 47.62L902.75 48.21L904.5 49.07L906.25 50.06L908 51.07L909.75 51.99L911.5 52.71L913.25 53.18L915 53.35L916.75 53.03L918.5 52.14L920.25 50.77L922 49L923.75 46.93L925.5 44.68L927.25 42.37L929 40.14L930.75 38.13L932.5 36.51L934.25 35.42L936 35.03" fill="none" stroke="#f8433a" stroke-width="1.4" stroke-linecap="round" stroke-linejoin="round"/><path d="M40 119.4L41.75 120.19L43.5 122.23L45.25 125.02L47 128.09L48.75 130.93L50.5 133.13L52.25 134.97L54 136.4L55.75 137.25L57.5 137.4L59.25 137.4L61 137.4L62.75 137.4L64.5 137.32L66.25 136.51L68 135.07L69.75 133.27L71.5 131.31L73.25 129.57L75 128.39L76.75 128.05L78.5 128.05L80.25 128.05L82 128.05L83.75 128.05L85.5 128.05L87.25 128.05L89 128.05L90.75 128.81L92.5 130.48L94.25 132.14L96 132.9L97.75 133.29L99.5 134.41L101.25 136.21L103 138.77L104.75 142.12L106.5 146.25L108.25 150.9L110 155.4L111.75 159.82L113.5 164.87L115.25 169.99L117 174.91L118.75 179.47L120.5 183.49L122.25 186.84L124 189.4L125.75 191.09L127.5 191.83L129.25 191.61L131 190.43L132.75 188.33L134.5 185.39L136.25 181.71L138 177.42L139.75 172.68L141.5 167.64L143.25 162.49L145 157.41L146.75 152.57L148.5 148.15L150.25 144.3L152 141.16L153.75 138.83L155.5 137.41L157.25 136.94L159 137.43L160.75 138.87L162.5 141.21L164.25 144.37L166 148.23L167.75 152.66L169.5 157.51L171.25 162.6L173 167.75L174.75 172.78L176.5 177.52L178.25 181.79L180 185.46L181.75 188.38L183.5 190.46L185.25 191.62L187 191.82L188.75 191.06L190.5 189.36L192.25 186.78L194 183.41L195.75 179.38L197.5 174.81L199.25 169.88L201 164.76L202.75 159.62L204.5 154.66L206.25 150.03L208 145.91L209.75 142.44L211.5 139.75L213.25 137.92L215 137.02L216.75 137.09L218.5 138.12L220.25 140.08L222 142.89L223.75 146.45L225.5 150.65L227.25 155.34L229 160.34L230.75 165.49L232.5 170.59L234.25 175.48L236 179.98L237.75 183.93L239.5 187.19L241.25 189.65L243 191.19L244.75 191.84L246.5 192.32L248.25 193.05L250 194.17L251.75 195.78L253.5 197.88L255.25 200.34L257 202.94L258.75 205.43L260.5 207.5L262.25 208.89L264 209.4L265.75 209.4L267.5 209.4L269.25 209.4L271 209.4L272.75 209.4L274.5 209.4L276.25 209.4L278 209.4L279.75 209.4L281.5 209.4L283.25 209.4L285 209.4L286.75 209.4L288.5 209.4L290.25 209.4L292 209.4L293.75 209.4L295.5 209.4L297.25 209.4L299 209.4L300.75 209.4L302.5 209.4L304.25 209.4L306 209.4L307.75 209.4L309.5 209.4L311.25 209.4L313 209.4L314.75 209.4L316.5 209.4L318.25 209.4L320 209.4L321.75 209.4L323.5 209.4L325.25 209.4L327 209.4L328.75 209.4L330.5 209.4L332.25 209.4L334 209.4L335.75 209.4L337.5 209.4L339.25 209.4L341 209.4L342.75 209.4L344.5 209.4L346.25 209.4L348 209.4L349.75 209.4L351.5 209.4L353.25 209.4L355 209.4L356.75 209.4L358.5 209.4L360.25 209.4L362 209.4L363.75 209.4L365.5 209.4L367.25 209.4L369 209.4L370.75 209.4L372.5 209.4L374.25 209.4L376 209.4L377.75 209.4L379.5 209.4L381.25 209.4L383 209.4L384.75 209.4L386.5 209.4L388.25 209.4L390 209.4L391.75 209.4L393.5 209.4L395.25 209.4L397 209.4L398.75 209.4L400.5 209.4L402.25 209.4L404 209.4L405.75 209.4L407.5 209.4L409.25 209.4L411 209.4L412.75 209.4L414.5 209.4L416.25 209.4L418 209.4L419.75 209.4L421.5 209.4L423.25 209.4L425 209.4L426.75 209.4L428.5 209.4L430.25 209.4L432 209.4L433.75 209.4L435.5 209.4L437.25 209.4L439 209.4L440.75 209.4L442.5 209.4L444.25 209.4L446 209.4L447.75 209.4L449.5 209.4L451.25 209.4L453 209.4L454.75 209.4L456.5 209.4L458.25 209.4L460 209.4L461.75 209.4L463.5 209.4L465.25 209.4L467 209.4L468.75 209.4L470.5 209.4L472.25 209.4L474 209.4L475.75 209.4L477.5 209.4L479.25 209.4L481 209.4L482.75 209.4L484.5 209.4L486.25 209.4L488 209.4L489.75 208.97L491.5 207.66L493.25 205.38L495 202.31L496.75 199L498.5 196.22L500.25 194.01L502 192.43L503.75 191.55L505.5 191.4L507.25 191.4L509 191.4L510.75 191.4L512.5 191.48L514.25 192.29L516 193.73L517.75 195.53L519.5 197.49L521.25 199.23L523 200.41L524.75 200.75L526.5 200.75L528.25 200.75L530 200.75L531.75 200.75L533.5 200.75L535.25 200.75L537 200.75L538.75 199.99L540.5 198.32L542.25 196.66L544 195.9L545.75 195.51L547.5 194.41L549.25 192.68L551 190.33L552.75 187.36L554.5 183.86L556.25 180.08L558 176.57L559.75 173.19L561.5 169.27L563.25 165.17L565 161.05L566.75 157.01L568.5 153.13L570.25 149.51L572 146.22L573.75 143.34L575.5 140.94L577.25 139.06L579 137.76L580.75 137.06L582.5 136.98L584.25 137.51L586 138.65L587.75 140.37L589.5 142.63L591.25 145.39L593 148.57L594.75 152.11L596.5 155.92L598.25 159.93L600 164.04L601.75 168.16L603.5 172.19L605.25 176.05L607 179.64L608.75 182.89L610.5 185.72L612.25 188.07L614 189.89L615.75 191.13L617.5 191.78L619.25 191.8L621 191.2L622.75 190L624.5 188.23L626.25 185.91L628 183.11L629.75 179.89L631.5 176.32L633.25 172.48L635 168.46L636.75 164.35L638.5 160.23L640.25 156.22L642 152.38L643.75 148.82L645.5 145.61L647.25 142.82L649 140.52L650.75 138.76L652.5 137.57L654.25 136.99L656 137.03L657.75 137.69L659.5 138.95L661.25 140.78L663 143.15L664.75 145.99L666.5 149.25L668.25 152.85L670 156.71L671.75 160.75L673.5 164.87L675.25 168.97L677 172.98L678.75 176.79L680.5 180.32L682.25 183.49L684 186.23L685.75 188.48L687.5 190.19L689.25 191.31L691 191.82L692.75 191.8L694.5 191.93L696.25 192.55L698 193.74L699.75 195.48L701.5 197.71L703.25 200.26L705 202.92L706.75 205.43L708.5 207.5L710.25 208.89L712 209.4L713.75 209.4L715.5 209.4L717.25 209.4L719 209.4L720.75 209.4L722.5 209.4L724.25 209.4L726 209.4L727.75 209.4L729.5 209.4L731.25 209.4L733 209.4L734.75 209.4L736.5 209.4L738.25 209.4L740 209.4L741.75 209.4L743.5 209.4L745.25 209.21L747 208.67L748.75 207.82L750.5 206.71L752.25 205.38L754 203.87L755.75 202.23L757.5 200.51L759.25 198.74L761 196.97L762.75 195.24L764.5 193.6L766.25 192.1L768 190.77L769.75 189.66L771.5 188.81L773.25 188.27L775 188.08L776.75 188.1L778.5 188.16L780.25 188.25L782 188.37L783.75 188.52L785.5 188.68L787.25 188.86L789 189.04L790.75 189.23L792.5 189.41L794.25 189.59L796 189.75L797.75 189.9L799.5 190.03L801.25 190.14L803 190.23L804.75 190.66L806.5 191.74L808.25 193.34L810 195.32L811.75 197.56L813.5 199.92L815.25 202.28L817 204.49L818.75 206.45L820.5 208L822.25 209.03L824 209.4L825.75 209.3L827.5 208.98L829.25 208.39L831 207.5L832.75 206.26L834.5 204.7L836.25 202.88L838 200.95L839.75 199.06L841.5 197.44L843.25 196.32L845 195.9L846.75 195.53L848.5 194.43L850.25 192.57L852 189.9L853.75 186.36L855.5 181.9L857.25 176.52L859 170.26L860.75 163.25L862.5 155.71L864.25 147.93L866 140.29L867.75 133.25L869.5 127.28L871.25 122.84L873 120.32L874.75 120.01L876.5 122.05L878.25 126.42L880 132.9L881.75 141.12L883.5 150.57L885.25 160.67L887 170.82L888.75 180.43L890.5 189.03L892.25 196.25L894 201.86L895.75 205.79L897.5 208.09L899.25 208.93L901 208.56L902.75 207.27L904.5 205.37L906.25 203.16L908 200.93L909.75 198.91L911.5 197.3L913.25 196.26L915 195.9L916.75 196.32L918.5 197.44L920.25 199.06L922 200.95L923.75 202.88L925.5 204.7L927.25 206.26L929 207.5L930.75 208.39L932.5 208.98L934.25 209.3L936 209.4" fill="none" stroke="#a17521" stroke-width="1.4" stroke-linecap="round" stroke-linejoin="round"/><path d="M40 121.8L41.75 122.59L43.5 124.63L45.25 127.42L47 130.49L48.75 133.33L50.5 135.53L52.25 137.37L54 138.8L55.75 139.65L57.5 139.8L59.25 139.8L61 139.8L62.75 139.8L64.5 139.72L66.25 138.91L68 137.47L69.75 135.67L71.5 133.71L73.25 131.97L75 130.79L76.75 130.45L78.5 130.45L80.25 130.45L82 130.45L83.75 130.45L85.5 130.45L87.25 130.45L89 130.45L90.75 131.21L92.5 132.88L94.25 134.54L96 135.3L97.75 135.69L99.5 136.81L101.25 138.61L103 141.17L104.75 144.52L106.5 148.65L108.25 153.3L110 157.8L111.75 162.22L113.5 167.27L115.25 172.39L117 177.31L118.75 181.87L120.5 185.89L122.25 189.24L124 191.8L125.75 193.49L127.5 194.23L129.25 194.01L131 192.83L132.75 190.73L134.5 187.79L136.25 184.11L138 179.82L139.75 175.08L141.5 170.04L143.25 164.89L145 159.81L146.75 154.97L148.5 150.55L150.25 146.7L152 143.56L153.75 141.23L155.5 139.81L157.25 139.34L159 139.83L160.75 141.27L162.5 143.61L164.25 146.77L166 150.63L167.75 155.06L169.5 159.91L171.25 165L173 170.15L174.75 175.18L176.5 179.92L178.25 184.19L180 187.86L181.75 190.78L183.5 192.86L185.25 194.02L187 194.22L188.75 193.46L190.5 191.76L192.25 189.18L194 185.81L195.75 181.78L197.5 177.21L199.25 172.28L201 167.16L202.75 162.02L204.5 157.06L206.25 152.43L208 148.31L209.75 144.84L211.5 142.15L213.25 140.32L215 139.42L216.75 139.49L218.5 140.52L220.25 142.48L222 145.29L223.75 148.85L225.5 153.05L227.25 157.74L229 162.74L230.75 167.89L232.5 172.99L234.25 177.88L236 182.38L237.75 186.33L239.5 189.59L241.25 192.05L243 193.59L244.75 194.24L246.5 194.72L248.25 195.45L250 196.57L251.75 198.18L253.5 200.28L255.25 202.74L257 205.34L258.75 207.83L260.5 209.9L262.25 211.29L264 211.8L265.75 211.8L267.5 211.8L269.25 211.8L271 211.8L272.75 211.8L274.5 211.8L276.25 211.8L278 211.8L279.75 211.8L281.5 211.8L283.25 211.8L285 211.8L286.75 211.8L288.5 211.8L290.25 211.8L292 211.8L293.75 211.8L295.5 211.8L297.25 211.8L299 211.8L300.75 211.8L302.5 211.8L304.25 211.8L306 211.8L307.75 211.8L309.5 211.8L311.25 211.8L313 211.8L314.75 211.8L316.5 211.8L318.25 211.8L320 211.8L321.75 211.8L323.5 211.8L325.25 211.8L327 211.8L328.75 211.8L330.5 211.8L332.25 211.8L334 211.8L335.75 211.8L337.5 211.8L339.25 211.8L341 211.8L342.75 211.8L344.5 211.8L346.25 211.8L348 211.8L349.75 211.8L351.5 211.8L353.25 211.8L355 211.8L356.75 211.8L358.5 211.8L360.25 211.8L362 211.8L363.75 211.8L365.5 211.8L367.25 211.8L369 211.8L370.75 211.8L372.5 211.8L374.25 211.8L376 211.8L377.75 211.19L379.5 209.52L381.25 207.05L383 204.03L384.75 200.71L386.5 197.34L388.25 193.96L390 190.11L391.75 186.13L393.5 182.2L395.25 178.01L397 172.7L398.75 166.23L400.5 158.72L402.25 150.69L404 143.28L405.75 136.92L407.5 131.87L409.25 128.36L411 126.54L412.75 126.5L414.5 128.24L416.25 131.68L418 136.67L419.75 142.98L421.5 150.35L423.25 158.44L425 166.9L426.75 175.35L428.5 183.43L430.25 190.78L432 197.06L433.75 202.02L435.5 205.42L437.25 207.11L439 207.03L440.75 205.18L442.5 201.63L444.25 196.55L446 190.16L447.75 182.73L449.5 174.61L451.25 166.13L453 157.69L454.75 149.65L456.5 142.37L458.25 136.16L460 131.31L461.75 128.02L463.5 126.44L465.25 126.63L467 128.49L468.75 131.39L470.5 134.72L472.25 138.02L474 140.26L475.75 140.39L477.5 138.89L479.25 135.93L481 131.97L482.75 128.14L484.5 124.89L486.25 122.64L488 121.8L489.75 122.42L491.5 124.13L493.25 126.71L495 129.79L496.75 132.85L498.5 135.3L500.25 137.29L502 138.79L503.75 139.65L505.5 139.8L507.25 139.8L509 139.8L510.75 139.8L512.5 139.72L514.25 138.91L516 137.47L517.75 135.67L519.5 133.71L521.25 131.97L523 130.79L524.75 130.45L526.5 130.45L528.25 130.45L530 130.45L531.75 130.45L533.5 130.45L535.25 130.45L537 130.45L538.75 131.21L540.5 132.88L542.25 134.54L544 135.3L545.75 135.69L547.5 136.79L549.25 138.52L551 140.87L552.75 143.84L554.5 147.34L556.25 151.12L558 154.63L559.75 158.01L561.5 161.93L563.25 166.03L565 170.15L566.75 174.19L568.5 178.07L570.25 181.69L572 184.98L573.75 187.86L575.5 190.26L577.25 192.14L579 193.44L580.75 194.14L582.5 194.22L584.25 193.69L586 192.55L587.75 190.83L589.5 188.57L591.25 185.81L593 182.63L594.75 179.09L596.5 175.28L598.25 171.27L600 167.16L601.75 163.04L603.5 159.01L605.25 155.15L607 151.56L608.75 148.31L610.5 145.48L612.25 143.13L614 141.31L615.75 140.07L617.5 139.42L619.25 139.4L621 140L622.75 141.2L624.5 142.97L626.25 145.29L628 148.09L629.75 151.31L631.5 154.88L633.25 158.72L635 162.74L636.75 166.85L638.5 170.97L640.25 174.98L642 178.82L643.75 182.38L645.5 185.59L647.25 188.38L649 190.68L650.75 192.44L652.5 193.63L654.25 194.21L656 194.17L657.75 193.51L659.5 192.25L661.25 190.42L663 188.05L664.75 185.21L666.5 181.95L668.25 178.35L670 174.49L671.75 170.45L673.5 166.33L675.25 162.23L677 158.22L678.75 154.41L680.5 150.88L682.25 147.71L684 144.97L685.75 142.72L687.5 141.01L689.25 139.89L691 139.38L692.75 139.4L694.5 139.27L696.25 138.65L698 137.46L699.75 135.72L701.5 133.49L703.25 130.94L705 128.28L706.75 125.77L708.5 123.7L710.25 122.31L712 121.8L713.75 122.14L715.5 123.14L717.25 124.75L719 126.94L720.75 129.66L722.5 132.86L724.25 136.48L726 140.46L727.75 144.73L729.5 149.19L731.25 153.78L733 158.38L734.75 162.91L736.5 167.28L738.25 171.4L740 175.19L741.75 178.61L743.5 181.59L745.25 184.11L747 186.17L748.75 187.78L750.5 188.97L752.25 189.76L754 190.23L755.75 190.42L757.5 190.39L759.25 190.21L761 189.92L762.75 189.57L764.5 189.21L766.25 188.86L768 188.55L769.75 188.3L771.5 188.11L773.25 187.99L775 187.95L776.75 187.98L778.5 188.07L780.25 188.2L782 188.39L783.75 188.6L785.5 188.85L787.25 189.13L789 189.42L790.75 189.72L792.5 190.02L794.25 190.32L796 190.62L797.75 190.9L799.5 191.16L801.25 191.41L803 191.63L804.75 192.2L806.5 193.41L808.25 195.12L810 197.22L811.75 199.56L813.5 202.02L815.25 204.46L817 206.75L818.75 208.77L820.5 210.36L822.25 211.42L824 211.8L825.75 211.7L827.5 211.38L829.25 210.79L831 209.9L832.75 208.66L834.5 207.1L836.25 205.28L838 203.35L839.75 201.46L841.5 199.84L843.25 198.72L845 198.3L846.75 198.66L848.5 199.7L850.25 201.31L852 203.33L853.75 205.56L855.5 207.77L857.25 209.67L859 210.96L860.75 211.33L862.5 210.49L864.25 208.19L866 204.26L867.75 198.65L869.5 191.43L871.25 182.83L873 173.22L874.75 163.07L876.5 152.97L878.25 143.52L880 135.3L881.75 128.82L883.5 124.45L885.25 122.41L887 122.72L888.75 125.24L890.5 129.68L892.25 135.65L894 142.69L895.75 150.33L897.5 158.11L899.25 165.65L901 172.66L902.75 178.92L904.5 184.3L906.25 188.76L908 192.3L909.75 194.97L911.5 196.83L913.25 197.93L915 198.3L916.75 198.72L918.5 199.84L920.25 201.46L922 203.35L923.75 205.28L925.5 207.1L927.25 208.66L929 209.9L930.75 210.79L932.5 211.38L934.25 211.7L936 211.8" fill="none" stroke="#902722" stroke-width="1.4" stroke-linecap="round" stroke-linejoin="round"/><path d="M40 214.2L41.75 213.41L43.5 211.37L45.25 208.58L47 205.51L48.75 202.67L50.5 200.47L52.25 198.63L54 197.2L55.75 196.35L57.5 196.2L59.25 196.2L61 196.2L62.75 196.2L64.5 196.28L66.25 197.09L68 198.53L69.75 200.33L71.5 202.29L73.25 204.03L75 205.21L76.75 205.55L78.5 205.55L80.25 205.55L82 205.55L83.75 205.55L85.5 205.55L87.25 205.55L89 205.55L90.75 204.79L92.5 203.12L94.25 201.46L96 200.7L97.75 200.31L99.5 199.19L101.25 197.39L103 194.83L104.75 191.48L106.5 187.35L108.25 182.7L110 178.2L111.75 173.78L113.5 168.73L115.25 163.61L117 158.69L118.75 154.13L120.5 150.11L122.25 146.76L124 144.2L125.75 142.51L127.5 141.77L129.25 141.99L131 143.17L132.75 145.27L134.5 148.21L136.25 151.89L138 156.18L139.75 160.92L141.5 165.96L143.25 171.11L145 176.19L146.75 181.03L148.5 185.45L150.25 189.3L152 192.44L153.75 194.77L155.5 196.19L157.25 196.66L159 196.17L160.75 194.73L162.5 192.39L164.25 189.23L166 185.37L167.75 180.94L169.5 176.09L171.25 171L173 165.85L174.75 160.82L176.5 156.08L178.25 151.81L180 148.14L181.75 145.22L183.5 143.14L185.25 141.98L187 141.78L188.75 142.54L190.5 144.24L192.25 146.82L194 150.19L195.75 154.22L197.5 158.79L199.25 163.72L201 168.84L202.75 173.98L204.5 178.94L206.25 183.57L208 187.69L209.75 191.16L211.5 193.85L213.25 195.68L215 196.58L216.75 196.51L218.5 195.48L220.25 193.52L222 190.71L223.75 187.15L225.5 182.95L227.25 178.26L229 173.26L230.75 168.11L232.5 163.01L234.25 158.12L236 153.62L237.75 149.67L239.5 146.41L241.25 143.95L243 142.41L244.75 141.76L246.5 141.28L248.25 140.55L250 139.43L251.75 137.82L253.5 135.72L255.25 133.26L257 130.66L258.75 128.17L260.5 126.1L262.25 124.71L264 124.2L265.75 124.2L267.5 124.2L269.25 124.2L271 124.2L272.75 124.2L274.5 124.2L276.25 124.2L278 124.2L279.75 124.2L281.5 124.2L283.25 124.2L285 124.2L286.75 124.2L288.5 124.2L290.25 124.2L292 124.2L293.75 124.2L295.5 124.2L297.25 124.2L299 124.2L300.75 124.2L302.5 124.2L304.25 124.2L306 124.2L307.75 124.2L309.5 124.2L311.25 124.2L313 124.2L314.75 124.2L316.5 124.2L318.25 124.2L320 124.2L321.75 124.2L323.5 124.2L325.25 124.2L327 124.2L328.75 124.2L330.5 124.2L332.25 124.2L334 124.2L335.75 124.2L337.5 124.2L339.25 124.2L341 124.2L342.75 124.2L344.5 124.2L346.25 124.2L348 124.2L349.75 124.2L351.5 124.2L353.25 124.2L355 124.2L356.75 124.2L358.5 124.2L360.25 124.2L362 124.2L363.75 124.2L365.5 124.2L367.25 124.2L369 124.2L370.75 124.2L372.5 124.2L374.25 124.2L376 124.2L377.75 124.2L379.5 124.2L381.25 124.2L383 124.2L384.75 124.2L386.5 124.2L388.25 124.2L390 124.2L391.75 124.2L393.5 124.2L395.25 124.2L397 124.2L398.75 124.2L400.5 124.2L402.25 124.2L404 124.2L405.75 124.2L407.5 124.2L409.25 124.2L411 124.2L412.75 124.2L414.5 124.2L416.25 124.2L418 124.2L419.75 124.2L421.5 124.2L423.25 124.2L425 124.2L426.75 124.2L428.5 124.2L430.25 124.2L432 124.2L433.75 124.2L435.5 124.2L437.25 124.2L439 124.2L440.75 124.2L442.5 124.2L444.25 124.2L446 124.2L447.75 124.2L449.5 124.2L451.25 124.2L453 124.2L454.75 124.2L456.5 124.2L458.25 124.2L460 124.2L461.75 124.2L463.5 124.2L465.25 124.2L467 124.2L468.75 124.2L470.5 124.2L472.25 124.2L474 124.2L475.75 124.2L477.5 124.2L479.25 124.2L481 124.2L482.75 124.2L484.5 124.2L486.25 124.2L488 124.2L489.75 124.63L491.5 125.94L493.25 128.22L495 131.29L496.75 134.6L498.5 137.38L500.25 139.59L502 141.17L503.75 142.05L505.5 142.2L507.25 142.2L509 142.2L510.75 142.2L512.5 142.12L514.25 141.31L516 139.87L517.75 138.07L519.5 136.11L521.25 134.37L523 133.19L524.75 132.85L526.5 132.85L528.25 132.85L530 132.85L531.75 132.85L533.5 132.85L535.25 132.85L537 132.85L538.75 133.61L540.5 135.28L542.25 136.94L544 137.7L545.75 138.09L547.5 139.19L549.25 140.92L551 143.27L552.75 146.24L554.5 149.74L556.25 153.52L558 157.03L559.75 160.41L561.5 164.33L563.25 168.43L565 172.55L566.75 176.59L568.5 180.47L570.25 184.09L572 187.38L573.75 190.26L575.5 192.66L577.25 194.54L579 195.84L580.75 196.54L582.5 196.62L584.25 196.09L586 194.95L587.75 193.23L589.5 190.97L591.25 188.21L593 185.03L594.75 181.49L596.5 177.68L598.25 173.67L600 169.56L601.75 165.44L603.5 161.41L605.25 157.55L607 153.96L608.75 150.71L610.5 147.88L612.25 145.53L614 143.71L615.75 142.47L617.5 141.82L619.25 141.8L621 142.4L622.75 143.6L624.5 145.37L626.25 147.69L628 150.49L629.75 153.71L631.5 157.28L633.25 161.12L635 165.14L636.75 169.25L638.5 173.37L640.25 177.38L642 181.22L643.75 184.78L645.5 187.99L647.25 190.78L649 193.08L650.75 194.84L652.5 196.03L654.25 196.61L656 196.57L657.75 195.91L659.5 194.65L661.25 192.82L663 190.45L664.75 187.61L666.5 184.35L668.25 180.75L670 176.89L671.75 172.85L673.5 168.73L675.25 164.63L677 160.62L678.75 156.81L680.5 153.28L682.25 150.11L684 147.37L685.75 145.12L687.5 143.41L689.25 142.29L691 141.78L692.75 141.8L694.5 141.67L696.25 141.05L698 139.86L699.75 138.12L701.5 135.89L703.25 133.34L705 130.68L706.75 128.17L708.5 126.1L710.25 124.71L712 124.2L713.75 124.2L715.5 124.2L717.25 124.2L719 124.2L720.75 124.2L722.5 124.2L724.25 124.2L726 124.2L727.75 124.2L729.5 124.2L731.25 124.2L733 124.2L734.75 124.2L736.5 124.2L738.25 124.2L740 124.2L741.75 124.2L743.5 124.2L745.25 124.39L747 124.93L748.75 125.78L750.5 126.89L752.25 128.22L754 129.73L755.75 131.37L757.5 133.09L759.25 134.86L761 136.63L762.75 138.36L764.5 140L766.25 141.5L768 142.83L769.75 143.94L771.5 144.79L773.25 145.33L775 145.52L776.75 145.5L778.5 145.44L780.25 145.35L782 145.23L783.75 145.08L785.5 144.92L787.25 144.74L789 144.56L790.75 144.37L792.5 144.19L794.25 144.01L796 143.85L797.75 143.7L799.5 143.57L801.25 143.46L803 143.37L804.75 142.94L806.5 141.86L808.25 140.26L810 138.28L811.75 136.04L813.5 133.68L815.25 131.32L817 129.11L818.75 127.15L820.5 125.6L822.25 124.57L824 124.2L825.75 124.3L827.5 124.62L829.25 125.21L831 126.1L832.75 127.34L834.5 128.9L836.25 130.72L838 132.65L839.75 134.54L841.5 136.16L843.25 137.28L845 137.7L846.75 138.07L848.5 139.17L850.25 141.03L852 143.7L853.75 147.24L855.5 151.7L857.25 157.08L859 163.34L860.75 170.35L862.5 177.89L864.25 185.67L866 193.31L867.75 200.35L869.5 206.32L871.25 210.76L873 213.28L874.75 213.59L876.5 211.55L878.25 207.18L880 200.7L881.75 192.48L883.5 183.03L885.25 172.93L887 162.78L888.75 153.17L890.5 144.57L892.25 137.35L894 131.74L895.75 127.81L897.5 125.51L899.25 124.67L901 125.04L902.75 126.33L904.5 128.23L906.25 130.44L908 132.67L909.75 134.69L911.5 136.3L913.25 137.34L915 137.7L916.75 137.28L918.5 136.16L920.25 134.54L922 132.65L923.75 130.72L925.5 128.9L927.25 127.34L929 126.1L930.75 125.21L932.5 124.62L934.25 124.3L936 124.2" fill="none" stroke="#ffca39" stroke-width="1.4" stroke-linecap="round" stroke-linejoin="round"/><path d="M40 216.6L41.75 215.81L43.5 213.77L45.25 210.98L47 207.91L48.75 205.07L50.5 202.87L52.25 201.03L54 199.6L55.75 198.75L57.5 198.6L59.25 198.6L61 198.6L62.75 198.6L64.5 198.68L66.25 199.49L68 200.93L69.75 202.73L71.5 204.69L73.25 206.43L75 207.61L76.75 207.95L78.5 207.95L80.25 207.95L82 207.95L83.75 207.95L85.5 207.95L87.25 207.95L89 207.95L90.75 207.19L92.5 205.52L94.25 203.86L96 203.1L97.75 202.71L99.5 201.59L101.25 199.79L103 197.23L104.75 193.88L106.5 189.75L108.25 185.1L110 180.6L111.75 176.18L113.5 171.13L115.25 166.01L117 161.09L118.75 156.53L120.5 152.51L122.25 149.16L124 146.6L125.75 144.91L127.5 144.17L129.25 144.39L131 145.57L132.75 147.67L134.5 150.61L136.25 154.29L138 158.58L139.75 163.32L141.5 168.36L143.25 173.51L145 178.59L146.75 183.43L148.5 187.85L150.25 191.7L152 194.84L153.75 197.17L155.5 198.59L157.25 199.06L159 198.57L160.75 197.13L162.5 194.79L164.25 191.63L166 187.77L167.75 183.34L169.5 178.49L171.25 173.4L173 168.25L174.75 163.22L176.5 158.48L178.25 154.21L180 150.54L181.75 147.62L183.5 145.54L185.25 144.38L187 144.18L188.75 144.94L190.5 146.64L192.25 149.22L194 152.59L195.75 156.62L197.5 161.19L199.25 166.12L201 171.24L202.75 176.38L204.5 181.34L206.25 185.97L208 190.09L209.75 193.56L211.5 196.25L213.25 198.08L215 198.98L216.75 198.91L218.5 197.88L220.25 195.92L222 193.11L223.75 189.55L225.5 185.35L227.25 180.66L229 175.66L230.75 170.51L232.5 165.41L234.25 160.52L236 156.02L237.75 152.07L239.5 148.81L241.25 146.35L243 144.81L244.75 144.16L246.5 143.68L248.25 142.95L250 141.83L251.75 140.22L253.5 138.12L255.25 135.66L257 133.06L258.75 130.57L260.5 128.5L262.25 127.11L264 126.6L265.75 126.6L267.5 126.6L269.25 126.6L271 126.6L272.75 126.6L274.5 126.6L276.25 126.6L278 126.6L279.75 126.6L281.5 126.6L283.25 126.6L285 126.6L286.75 126.6L288.5 126.6L290.25 126.6L292 126.6L293.75 126.6L295.5 126.6L297.25 126.6L299 126.6L300.75 126.6L302.5 126.6L304.25 126.6L306 126.6L307.75 126.6L309.5 126.6L311.25 126.6L313 126.6L314.75 126.6L316.5 126.6L318.25 126.6L320 126.6L321.75 126.6L323.5 126.6L325.25 126.6L327 126.6L328.75 126.6L330.5 126.6L332.25 126.6L334 126.6L335.75 126.6L337.5 126.6L339.25 126.6L341 126.6L342.75 126.6L344.5 126.6L346.25 126.6L348 126.6L349.75 126.6L351.5 126.6L353.25 126.6L355 126.6L356.75 126.6L358.5 126.6L360.25 126.6L362 126.6L363.75 126.6L365.5 126.6L367.25 126.6L369 126.6L370.75 126.6L372.5 126.6L374.25 126.6L376 126.6L377.75 127.21L379.5 128.88L381.25 131.35L383 134.37L384.75 137.69L386.5 141.06L388.25 144.44L390 148.29L391.75 152.27L393.5 156.2L395.25 160.39L397 165.7L398.75 172.17L400.5 179.68L402.25 187.71L404 195.12L405.75 201.48L407.5 206.53L409.25 210.04L411 211.86L412.75 211.9L414.5 210.16L416.25 206.72L418 201.73L419.75 195.42L421.5 188.05L423.25 179.96L425 171.5L426.75 163.05L428.5 154.97L430.25 147.62L432 141.34L433.75 136.38L435.5 132.98L437.25 131.29L439 131.37L440.75 133.22L442.5 136.77L444.25 141.85L446 148.24L447.75 155.67L449.5 163.79L451.25 172.27L453 180.71L454.75 188.75L456.5 196.03L458.25 202.24L460 207.09L461.75 210.38L463.5 211.96L465.25 211.77L467 209.91L468.75 207.01L470.5 203.68L472.25 200.38L474 198.14L475.75 198.01L477.5 199.51L479.25 202.47L481 206.43L482.75 210.26L484.5 213.51L486.25 215.76L488 216.6L489.75 215.98L491.5 214.27L493.25 211.69L495 208.61L496.75 205.55L498.5 203.1L500.25 201.11L502 199.61L503.75 198.75L505.5 198.6L507.25 198.6L509 198.6L510.75 198.6L512.5 198.68L514.25 199.49L516 200.93L517.75 202.73L519.5 204.69L521.25 206.43L523 207.61L524.75 207.95L526.5 207.95L528.25 207.95L530 207.95L531.75 207.95L533.5 207.95L535.25 207.95L537 207.95L538.75 207.19L540.5 205.52L542.25 203.86L544 203.1L545.75 202.71L547.5 201.61L549.25 199.88L551 197.53L552.75 194.56L554.5 191.06L556.25 187.28L558 183.77L559.75 180.39L561.5 176.47L563.25 172.37L565 168.25L566.75 164.21L568.5 160.33L570.25 156.71L572 153.42L573.75 150.54L575.5 148.14L577.25 146.26L579 144.96L580.75 144.26L582.5 144.18L584.25 144.71L586 145.85L587.75 147.57L589.5 149.83L591.25 152.59L593 155.77L594.75 159.31L596.5 163.12L598.25 167.13L600 171.24L601.75 175.36L603.5 179.39L605.25 183.25L607 186.84L608.75 190.09L610.5 192.92L612.25 195.27L614 197.09L615.75 198.33L617.5 198.98L619.25 199L621 198.4L622.75 197.2L624.5 195.43L626.25 193.11L628 190.31L629.75 187.09L631.5 183.52L633.25 179.68L635 175.66L636.75 171.55L638.5 167.43L640.25 163.42L642 159.58L643.75 156.02L645.5 152.81L647.25 150.02L649 147.72L650.75 145.96L652.5 144.77L654.25 144.19L656 144.23L657.75 144.89L659.5 146.15L661.25 147.98L663 150.35L664.75 153.19L666.5 156.45L668.25 160.05L670 163.91L671.75 167.95L673.5 172.07L675.25 176.17L677 180.18L678.75 183.99L680.5 187.52L682.25 190.69L684 193.43L685.75 195.68L687.5 197.39L689.25 198.51L691 199.02L692.75 199L694.5 199.13L696.25 199.75L698 200.94L699.75 202.68L701.5 204.91L703.25 207.46L705 210.12L706.75 212.63L708.5 214.7L710.25 216.09L712 216.6L713.75 216.26L715.5 215.26L717.25 213.65L719 211.46L720.75 208.74L722.5 205.54L724.25 201.92L726 197.94L727.75 193.67L729.5 189.21L731.25 184.62L733 180.02L734.75 175.49L736.5 171.12L738.25 167L740 163.21L741.75 159.79L743.5 156.81L745.25 154.29L747 152.23L748.75 150.62L750.5 149.43L752.25 148.64L754 148.17L755.75 147.98L757.5 148.01L759.25 148.19L761 148.48L762.75 148.83L764.5 149.19L766.25 149.54L768 149.85L769.75 150.1L771.5 150.29L773.25 150.41L775 150.45L776.75 150.42L778.5 150.33L780.25 150.2L782 150.01L783.75 149.8L785.5 149.55L787.25 149.27L789 148.98L790.75 148.68L792.5 148.38L794.25 148.08L796 147.78L797.75 147.5L799.5 147.24L801.25 146.99L803 146.77L804.75 146.2L806.5 144.99L808.25 143.28L810 141.18L811.75 138.84L813.5 136.38L815.25 133.94L817 131.65L818.75 129.63L820.5 128.04L822.25 126.98L824 126.6L825.75 126.7L827.5 127.02L829.25 127.61L831 128.5L832.75 129.74L834.5 131.3L836.25 133.12L838 135.05L839.75 136.94L841.5 138.56L843.25 139.68L845 140.1L846.75 139.74L848.5 138.7L850.25 137.09L852 135.07L853.75 132.84L855.5 130.63L857.25 128.73L859 127.44L860.75 127.07L862.5 127.91L864.25 130.21L866 134.14L867.75 139.75L869.5 146.97L871.25 155.57L873 165.18L874.75 175.33L876.5 185.43L878.25 194.88L880 203.1L881.75 209.58L883.5 213.95L885.25 215.99L887 215.68L888.75 213.16L890.5 208.72L892.25 202.75L894 195.71L895.75 188.07L897.5 180.29L899.25 172.75L901 165.74L902.75 159.48L904.5 154.1L906.25 149.64L908 146.1L909.75 143.43L911.5 141.57L913.25 140.47L915 140.1L916.75 139.68L918.5 138.56L920.25 136.94L922 135.05L923.75 133.12L925.5 131.3L927.25 129.74L929 128.5L930.75 127.61L932.5 127.02L934.25 126.7L936 126.6" fill="none" stroke="#f8433a" stroke-width="1.4" stroke-linecap="round" stroke-linejoin="round"/></svg>